<svg id="Layer_1" data-name="Layer 1" xmlns="http://www.w3.org/2000/svg" viewBox="0 0 3840 3840"><defs><style>.cls-1{fill:#f2f2f2;}.cls-2{fill:#333;}</style></defs><title>chantilly1Artboard 1</title><path class="cls-1" d="M2330.94,641.58l.37-.62a98.76,98.76,0,0,0,2.13-20.38c0-78.49-94-146.38-230.64-178.9-.12-6.4-1.11-13-1.08-18.75.1-18.25,2.71-36.62,6.39-54.46a330.1,330.1,0,0,1,41.78-105.9c11.37-18.52,25.22-39.25,19.41-60.24-4-14.6-17.25-25.21-31.57-29.71s-29.7-3.81-44.61-2.24c-50.86,5.37-100.23,20.33-148.61,37.06-56.19,19.43-112.74,42.08-157.73,81.27-27.1,23.61-49.42,53.94-61.61,88.11-6.81,19.08-15.39,48.5-7.88,69.75l.12.33c-125.48,34.21-210.18,99.17-210.18,173.68a98.79,98.79,0,0,0,2.28,21.09l-1.94-5.24c-153,70.35-251,178.94-251,300.78a226.66,226.66,0,0,0,3.67,40.63h0c-143.86,73.43-231.53,171-231.53,278q0,6.76.46,13.46h-.08c0,53.74,399,97.31,891.28,97.31s891.28-43.57,891.28-97.31h-.07q.45-6.7.46-13.46c0-107.12-87.82-204.73-231.88-278.19l.59-1.19a226.4,226.4,0,0,0,3.43-39.26c0-121.85-98.09-230.44-251.07-300.8"/><path class="cls-2" d="M2338.71,646.12c5.2-8.68,4.2-23.62,3.41-33.47a112.31,112.31,0,0,0-5-25.68c-5.66-17.41-15.26-33-26.92-47.05-29.21-35.07-70.85-59.07-112.31-76.74A584,584,0,0,0,2105.19,433l6.61,8.67c-.63-16.37-1.15-32,1.08-48.35a337,337,0,0,1,9.56-45.64,329.62,329.62,0,0,1,36.78-83.12c13.77-22.4,29.43-50.21,13.89-75.9-14.3-23.62-43.09-29.67-68.75-28.23-62.06,3.5-123.13,24-181.13,45-54,19.57-108.2,43.72-150.37,83.8-22.41,21.31-40.75,47-52.64,75.61-10.27,24.72-21.32,58-11.49,84.45l6.29-11.07c-47.63,13.12-95,31.31-136.11,59.19-30.92,21-59.32,48.16-73.17,83.56-7.91,20.21-9.2,41.89-4.91,63.09l17.36-4.78-1.94-5.24c-2.15-5.82-7.64-8-13.22-5.38-107,49.47-219.81,131.79-248.83,252.84a242.64,242.64,0,0,0-6.34,43.57,225.29,225.29,0,0,0,.2,27.5c.6,8.88.32,21.73,4.37,29.81l3.23-12.31c-92.51,47.44-191.7,117.38-225.54,220.83a211.41,211.41,0,0,0-10,78.41l9-9h-.08c-4.78.34-9.09,3.85-9,9,.39,21.69,30,31.75,46.49,37.55,38.28,13.49,79.12,20.34,119.08,26.61,140.14,22,282.65,30.34,424.24,36.08q278.36,11.29,557.16,2.29c149.7-4.69,300-12.57,448.53-32.63,45.71-6.17,91.78-13.15,136.31-25.45,14.42-4,28.84-8.58,42.34-15.11,8.55-4.14,17.86-9.57,23-17.89a22.44,22.44,0,0,0,3.43-11.45c.1-5.11-4.21-8.66-9-9h-.07l9,9C2826.77,1166,2755,1082.24,2676,1025.12c-28.87-20.88-59.63-39-91.33-55.23l3.23,12.31c3.23-6.47,3.34-14.84,4.08-22a229,229,0,0,0,1.13-27.46,242.32,242.32,0,0,0-4.12-39.49c-4.88-26.27-14.41-51.63-27.07-75.12-28.47-52.81-72.63-95.81-121.09-130.38-32.35-23.08-67.16-42.48-103.21-59.15-10.44-4.83-19.6,10.68-9.08,15.55C2429.84,691,2537.62,767.11,2567.77,881a216.45,216.45,0,0,1,6.76,39.72,223.36,223.36,0,0,1,.51,23.14q-.24,8.22-1.07,16.42c-.38,3.64,0,9.65-1.62,12.88-2.08,4.16-1.33,10,3.23,12.31,87.92,45.05,184.78,111.1,217.39,209.6a197.18,197.18,0,0,1,9.57,74.28c-.31,5.1,4.38,8.67,9,9h.07l-9-9c0,2.11-.13-.23.08-.07a7.7,7.7,0,0,1-.58,1.91c2.69-3.8-3.17,3.81-.45.59a37,37,0,0,1-3.75,3.76c-1.86,1.65,1.07-.68-1.06.83-.9.63-1.81,1.25-2.75,1.85-10.68,6.8-20.45,10.07-32.57,13.94-39.77,12.71-81.53,19.58-122.72,25.75-137.47,20.6-277.08,28.53-415.86,34q-271.2,10.7-542.81,2.18c-146.86-4.48-294.24-12.07-440.06-30.86-46.14-5.94-92.5-12.87-137.62-24.43-13.79-3.53-30.15-8.31-41.77-13.31a99.73,99.73,0,0,1-14.13-7.27c-.93-.6-1.84-1.22-2.74-1.85-2.14-1.51.8.82-1.06-.83a36,36,0,0,1-3.75-3.76c2.73,3.24-3.13-4.38-.45-.59a17.39,17.39,0,0,1-.58-1.91c.07,0,.11,2.17.07.07l-9,9h.08c4.63-.33,9.31-3.86,9-9-5.94-98.49,63.94-177.72,139.51-231.42,27.64-19.65,56.94-36.81,87.1-52.28,4.52-2.32,5.31-8.16,3.23-12.31-1.32-2.65-.84-9-1.18-12.26q-.72-6.76-1-13.57a230.25,230.25,0,0,1,.15-23.5,215.29,215.29,0,0,1,5.14-35.55,248.77,248.77,0,0,1,27.73-69.16c28.4-48.87,70.7-88.76,116.91-120.67,30.42-21,62.88-38.88,96.42-54.39l-13.22-5.38,1.94,5.24c4,10.82,19.68,6.68,17.36-4.78-9-44.35,16.51-83,49-110.62,43.19-36.72,98.58-58.21,152.6-73.08,4.38-1.21,8-6.49,6.28-11.07-7.94-21.37,1.17-47.82,8.77-68.06,9.09-24.21,23.78-46.35,41.43-65.15,36.79-39.16,86.25-63.65,135.8-82.59,52.8-20.18,107.58-38.51,163.59-47.08,24.48-3.74,57.67-9.46,77.14,10.15,20.83,21-.57,49.34-12.35,69A338.48,338.48,0,0,0,2104.24,346a352,352,0,0,0-9.22,46.16c-2.22,16.75-1.86,32.76-1.22,49.55.14,3.87,2.68,7.74,6.6,8.68,47.9,11.52,95.25,27.78,137.64,53.25,31.36,18.84,62,43.81,77.62,77.71a99.22,99.22,0,0,1,7.53,24.14,83.38,83.38,0,0,1,1.19,11.59c.17,5,1.32,15.75-1.21,20-6,10,9.59,19,15.54,9.08Z"/><path class="cls-1" d="M1259.61,974.47c30.1,49.65,314.42,88.57,660.72,88.57,345.76,0,629.73-38.8,660.58-88.34l-.79,3"/><path class="cls-2" d="M1251.84,979c10.25,16.54,31.77,24.79,49.09,31.21,30.4,11.27,62.48,18.15,94.28,24.11,101,18.93,204.12,27.06,306.59,32.31,129.77,6.64,260,7.2,389.8,2.13,107.93-4.22,216.3-11.78,323-29.07,35.55-5.76,71.19-12.52,105.69-23,21-6.37,44.66-13.86,61.24-29a42.44,42.44,0,0,0,7.15-8.49l-16.45-6.93-.8,3c-3,11.2,14.35,16,17.36,4.78l.79-3c2.69-10-11-15.48-16.45-6.93-.4.64-.82,1.27-1.28,1.87,1.83-2.36.19-.27-.29.21-1.25,1.26-2.49,2.49-3.8,3.68-.44.4-2.71,2.15-.66.6-.82.62-1.66,1.22-2.5,1.8-1.85,1.28-3.75,2.46-5.68,3.58-10,5.79-17.72,8.79-28.33,12.53-30.95,10.91-63.38,17.72-95.61,23.59-99.45,18.13-200.92,25.89-301.77,30.9-127.85,6.35-256.09,6.85-384,1.85-105.42-4.11-211.32-11.29-315.59-28-35.28-5.64-70.62-12.28-104.94-22.38-6.63-1.95-13.23-4-19.75-6.38-5.9-2.1-10.74-4-15.27-6a127.31,127.31,0,0,1-12.93-6.67c-1.71-1-3.37-2.11-5-3.22-.45-.3-3.21-2.44-1.11-.76-.75-.6-1.48-1.2-2.2-1.83-1.18-1-2.26-2.18-3.36-3.3-.47-.48-2.26-2.87-.42-.41-.45-.6-.86-1.23-1.25-1.86-6.09-9.83-21.67-.8-15.54,9.08Z"/><path class="cls-2" d="M1501.37,644.47c7.57,10.13,20.79,14.53,32.41,18.13,19.46,6,39.72,9.6,59.82,12.72,64.28,10,129.49,14.25,194.43,16.93q123.12,5.1,246.46.7c67-2.36,134.12-6.45,200.51-15.84,21.59-3.05,43.27-6.6,64.34-12.32,12.32-3.35,26.94-7.25,36.51-16.26a22.24,22.24,0,0,0,5-7.57c2-4.43,1.28-9.68-3.23-12.32-3.85-2.25-10.31-1.22-12.31,3.23a22.18,22.18,0,0,0-1.21,2.69c-.55,1.87.4-.17.41-.17a9.69,9.69,0,0,0-1.91,1.88c-1.29,1.38,1.27-.84.35-.25-.39.25-.76.55-1.16.81-1.07.67-2.14,1.33-3.25,1.94s-2.22,1.16-3.36,1.69c-.57.27-1.15.52-1.73.78-1.38.63.43-.18.59-.24-.54.22-1.08.45-1.63.66q-4.72,1.83-9.56,3.35c-18.71,5.9-38.19,9.4-57.53,12.48-61.37,9.76-123.76,13.75-185.78,16.47q-119.81,5.25-239.82,1.43c-66.87-2-133.93-5.78-200.32-14.42-22-2.87-44-6.33-65.59-11.57a209,209,0,0,1-22.61-6.63q-2.14-.79-4.26-1.65c2.52,1-1.78-.82-2.59-1.21-2.14-1-4.08-2.34-6.12-3.54-1.78-1,1.17,1.15.28.25-.34-.34-.76-.59-1.08-.94-.69-.73-2.6-3.11-.51-.3-2.9-3.89-7.78-5.88-12.31-3.23-3.83,2.25-6.15,8.4-3.23,12.32Z"/><path class="cls-1" d="M1717.29,446.57a35.94,35.94,0,0,0,8,13.18c39.85,41.38,137,38.17,188.1,38.17,38.59,0,77.57-2.55,115.5-10.06,20.4-4,59.85-9.53,70.95-30.4,2.5-4.7,3.07-10.18,3-15.78"/><path class="cls-2" d="M1708.61,449c9.68,25.85,38.36,38.88,63.19,46.07,26.81,7.76,55.14,10.28,82.93,11.35,26.88,1.05,54,1,80.87.24,36.51-1,72.38-5.49,108.19-12.47,14.79-2.89,29.79-6.39,43.25-13.4,6-3.13,11.89-7.24,16.21-12.5,6.36-7.74,8.6-16.64,8.55-26.57-.07-11.57-18.07-11.6-18,0,0,6.22-1,11.63-5.07,15.87-3.65,3.83-8.2,6.47-13,8.76-10.56,5.06-22.41,7.6-33.82,9.9a616.49,616.49,0,0,1-97.62,12.12c-26.1,1-52.4,1-78.52.39-25.23-.58-50.65-2.17-75.37-7.56-12.84-2.8-25.68-6.53-37.43-12.52-10.57-5.38-22.65-12.79-27-24.46-1.7-4.55-6.09-7.66-11.07-6.29-4.37,1.2-8,6.5-6.29,11.07Z"/></svg>