<svg id="Layer_1" data-name="Layer 1" xmlns="http://www.w3.org/2000/svg" viewBox="0 0 3840 3840"><defs><style>.cls-1{fill:#998675;}.cls-2{fill:#333;}</style></defs><title>copo1Artboard 1</title><path class="cls-1" d="M2812.47,1264.36C2756.07,2444.05,2378,3356,1920,3356c-458.79,0-837.37-915.11-892.76-2097.76l7.52-.45c0,53.78,396.34,97.38,885.24,97.38s885.24-43.6,885.24-97.38"/><path class="cls-2" d="M2803.47,1264.36c-10.54,219.09-32.22,437.77-67.87,654.24-31.34,190.25-73.16,379.13-130.28,563.37-47.41,152.91-105.16,303.58-181.54,444.52-59,108.78-129.67,214.49-222.18,297.73-70,63-156,113.07-251.36,121.46-92.55,8.15-181.18-24-256.17-76.83-95-66.86-168.67-161.56-229.59-259.27-80.71-129.44-141.85-270.66-192.38-414.29-61.69-175.4-107.52-356.25-143-538.67-40.54-208.71-67.19-420-82.87-632q-6.15-83.08-10-166.33l-9,9,7.52-.45-9-9c.45,21.35,28.94,31.36,45.24,37.22,38.22,13.76,79.15,20.63,119.12,27,138.71,22,279.8,30.3,420,36.07q276.86,11.39,554.16,2.38c148.91-4.69,298.4-12.6,446.13-32.66,45.8-6.22,92-13.26,136.57-25.78,20.39-5.73,51.91-13.09,63.93-32.83a22.69,22.69,0,0,0,3.36-11.36c.24-11.58-17.76-11.58-18,0,0,.75.94-.86-.45,1.72,1.58-2.93-2.32,2.92-.7,1-3.29,4-4.07,4.17-7.87,6.55-10.27,6.46-21.24,10.24-32.8,13.92-39.09,12.45-80.08,19.27-120.55,25.39-136.57,20.65-275.31,28.59-413.2,34.06q-268.44,10.65-537.28,2.24c-145.69-4.43-291.89-12-436.54-30.61-46.47-6-93.17-13-138.6-24.62-13.94-3.59-28.75-7.8-41.57-13.27a98.81,98.81,0,0,1-14.25-7.33c-3.49-2.22-4.34-2.51-7.52-6.33,1.11,1.34-1.43-2.36-1-1.61-.12-.19-.2-1.48-.19-1.09-.1-4.64-4-9.29-9-9l-7.52.45c-4.68.28-9.24,3.9-9,9,10.41,220.81,32.19,441.2,67.87,659.4C1117.66,2110.6,1160,2302.18,1218,2489c48,154.49,106.61,306.84,184,449.13,59.81,109.9,131.88,217,225.8,300.79,72.64,64.8,160.61,115,258.91,124.52,94.29,9.12,186.36-22.61,263.46-75.67,96.88-66.69,172.46-161.2,235-259.72,82.05-129.33,144.1-271,195.48-415,63-176.56,109.73-358.81,145.8-542.67,41.45-211.19,68.74-425.15,84.82-639.73q6.22-83.06,10.19-166.27c.56-11.58-17.44-11.55-18,0Z"/><path class="cls-2" d="M2023.38,3333.23c.23,83.34,43.29,157.85,100.27,216.07,75,76.64,172,130.17,270,171.54,68.45,28.89,139.21,52,211,70.83l-6.29-11.08c-.67,3.77-1.12,3.49-.15,1.26-.58,1.35-.52.39.47-.81-1.77,2.16,1.19-1.55-.39.61a9.78,9.78,0,0,1-1.22,1.1c2.27-2.17.81-.55,0-.1-1.34.76-2.64,1.58-4,2.27-.68.33-1.37.64-2,1-2.26,1.06,1.5-.53-.91.37-2,.76-4.09,1.52-6.17,2.2-4.94,1.62-10,3-15,4.21-30.27,7.4-61.46,11.27-92.38,14.77-107.08,12.13-215.1,16.79-322.76,20q-210.22,6.24-420.61,1.24c-113.16-2.62-226.55-7-339.25-18-35.3-3.44-70.72-7.36-105.55-14.2a267,267,0,0,1-32.65-8.08c-2-.65-3.91-1.37-5.85-2.1-2.25-.84,1.1.55-.66-.26-.85-.39-1.69-.76-2.52-1.18-1.31-.66-2.53-1.45-3.81-2.16-.42-.23-2-1.54-.62-.39s-.32-.24-.59-.61c-1.69-2.28,1.39,1.56-.39-.61.77.93,1.16,2.33.47.81.89,2,.55,2.67-.15-1.26l-6.29,11.08c120.81-31.68,240.63-75,347.93-139.7,79.14-47.72,156.57-109.83,200.58-192.86,20.58-38.84,32.67-81.8,32.79-125.88,0-11.59-18-11.6-18,0-.22,79.72-42.5,150.43-97.26,205.65-73.8,74.42-169,126.59-264.88,166.75-66.82,28-135.91,50.32-205.94,68.68-5,1.31-7.14,6.32-6.29,11.07-.76-4.25,0,.95.49,2.37a16.47,16.47,0,0,0,3.6,6,30.27,30.27,0,0,0,7.44,5.66c7.89,4.48,17,7.11,25.71,9.42,30.39,8,62,11.91,93.14,15.61,108.33,12.86,217.75,17.54,326.73,20.86q213.89,6.51,428,1.33c115.28-2.71,230.85-7.17,345.61-18.85,35.56-3.62,71.3-7.68,106.33-14.94,10.69-2.21,21.45-4.67,31.7-8.47,6.67-2.47,14-5.38,18.88-10.84a16.08,16.08,0,0,0,3.41-5.75c.46-1.43,1.25-6.62.49-2.37.85-4.74-1.23-9.75-6.29-11.07-118.17-31-235.08-73.06-340.31-135.89-77.32-46.16-153-105.92-196.43-186.53-19.69-36.54-31.22-77-31.34-118.66,0-11.58-18-11.6-18,0Z"/><path class="cls-2" d="M2555.87,3760.81c-58.62,11.11-118.83,15.25-178.38,19.29-91.49,6.22-183.18,9.49-274.86,11.41q-163.07,3.4-326.19.72c-95.07-1.54-190.17-4.5-285.09-10.27-63.9-3.89-128.42-8.14-191.53-18.4q-7.86-1.28-15.7-2.75c-11.32-2.15-16.17,15.2-4.79,17.35,59.4,11.26,120.31,15.63,180.53,19.76,92,6.32,184.16,9.62,276.33,11.56q164.25,3.46,328.56.73c95.29-1.55,190.6-4.54,285.73-10.36,64.91-4,130.22-8.48,194.47-18.93q7.88-1.27,15.7-2.75c11.37-2.16,6.56-19.51-4.78-17.36Z"/><path class="cls-2" d="M2186.56,1064.93h0a9.37,9.37,0,0,0-2.64-6.36,9.94,9.94,0,0,0-6.36-2.64,9,9,0,0,0-9,9h0a9.32,9.32,0,0,0,2.63,6.36,9.94,9.94,0,0,0,6.37,2.64,9,9,0,0,0,9-9Z"/><path class="cls-2" d="M1920,3347c-103.79-.25-198.39-49.77-275-116.92-101.6-89.07-177.37-205.37-239.74-324.13-82.77-157.61-143.52-326.4-192.43-497.28-58.74-205.23-100-415.37-129.08-626.75-33.29-241.79-50.3-485.82-53.82-729.82q-.68-46.9-.67-93.83h-18c1,31.9,52.75,44.73,76.11,51.64,68.33,20.19,140.16,29.36,210.7,37.77,5.14.62,8.6-4.64,9-9v0h-18c2.12,241.81,13.31,483.6,35.57,724.41,19.46,210.54,47.12,420.56,87.25,628.21,32.56,168.49,72.88,336.28,129.75,498.36C1582.49,3006,1631.31,3124,1704.75,3224c46.17,62.91,108.89,127.41,189.92,139.06A182,182,0,0,0,1920,3365c11.58,0,11.6-18,0-18-76.9-.28-139.25-56-184.79-112.63-73.69-91.55-122.39-203.42-162.94-312.77-57.53-155.18-98.41-316.43-131.69-478.38-41.4-201.43-70.28-405.38-91.1-609.91-23.75-233.4-36.81-467.88-41.15-702.42q-.86-46.12-1.24-92.25c-.11-11.77-16.95-11.36-18,0v0l9-9c-65.46-7.8-131.61-16.76-195.33-34.13-18.57-5.06-37.54-10.65-54.59-19.75-5.21-2.79-10.66-5.86-14.77-10.19-2.76-2.9-4.06-5.38-4.12-7.34-.36-11.55-18-11.63-18,0,.08,249.15,14,498.41,44.36,745.74,26.82,218.67,66,436.2,123.13,649.07,47.53,177.28,107.19,352.48,188.32,517.38,62.1,126.24,137.82,250.31,239.58,348.73,76.25,73.74,170.7,133,278.13,144,11.7,1.2,23.45,1.77,35.21,1.8C1931.58,3365,1931.6,3347,1920,3347Z"/><path class="cls-2" d="M2532.91,1038.65c-2,234.1-12.61,468.19-33.48,701.39-18.42,206-44.7,411.38-82.66,614.68-31.1,166.54-69.61,332.31-123.16,493.17-39.29,118.06-86.22,236.67-155.5,340.72-42.54,63.88-100,132.71-177.51,153.09-13.86,3.64-28.69,6.27-43.1,5.2.21,0-.33.12-3.09-.69-3.38-1-2.26-.61-3.8-1.41a42.36,42.36,0,0,1-8.5-5.62c-17.21-15.3-28.24-38.26-37.73-60.73-15.81-37.43-26.9-76.91-36.81-116.24-13.66-54.24-24.48-109.18-34.08-164.27-26.3-150.93-43.62-303.42-58.06-455.9-18.75-198-31.7-396.6-41.38-595.26q-17-349.48-21-699.43-1.18-91.21-1.61-182.42a9.16,9.16,0,0,0-9-9c-121.67-4.53-243.4-12-364.36-26.24-11.48-1.35-11.38,16.66,0,18,121,14.24,242.69,21.71,364.36,26.24l-9-9q1.77,366,16,731.9c8.42,209.77,20.25,419.45,37.68,628.67,13.74,165,30.59,329.87,55.46,493.57,16.56,109,34.74,219.95,69.82,324.79,10,29.87,21.35,60.73,39.15,87,10.88,16,25.85,32.72,46.49,34.12,32.5,2.21,67.08-9.87,95.13-25.27,35.31-19.39,65.65-47.33,91.91-77.6,74.92-86.39,124.68-193.72,166.15-299.28,58.58-149.08,100.16-304.75,134.23-461.08,42.5-195,72.51-392.7,94.81-591,25.86-230,40.94-461.13,47.41-692.44q2.52-89.8,3.27-179.63c.11-11.59-17.89-11.6-18,0Z"/><path class="cls-2" d="M2177.56,1073.93c98.14-3.64,196.27-9.33,294-18.73q35.19-3.39,70.32-7.51c4.47-.53,9.49-3.7,9-9v0c-.45-4.84-3.81-9-9-9-4.52,0-9.45,4.13-9,9v0l9-9c-91.39,10.79-183.25,17.55-275.14,22.3q-44.59,2.31-89.22,3.94c-11.55.43-11.61,18.43,0,18Z"/><path class="cls-2" d="M2168.56,1064.92q-1.71,354.15-15,708.13c-7.94,204.41-19.11,408.75-35.38,612.68C2105,2550.21,2089,2714.64,2065.47,2878c-16,111.06-34,223.14-65.75,331-9.63,32.68-20.41,65.68-36.59,95.79-5.57,10.36-11.64,20.12-18.4,27.65-1.45,1.61-3,3.19-4.52,4.68-1.25,1.19-5.13,4.34-4,3.51-1.56,1.14-3.17,2.16-4.83,3.16-.74.45-1.52.82-2.29,1.21-2.52,1.26,1-.25-1.18.51a44,44,0,0,1-4.62,1.3c-2.42.56.57.22-3.29.25-11.58.11-11.61,18,0,18,105.89-.25,202.57-49.3,281.64-116.93,103.68-88.69,181.3-206.19,244.8-325.78,83.87-158,145.6-327.41,195.22-498.92C2701.94,2215,2744,2001.5,2773.6,1786.71c33.5-243.41,50.91-488.95,54.46-734.6q.68-46.9.67-93.83c0-11.61-17.64-11.57-18,0-.05,1.85-1.34,4.42-4.12,7.34-4.12,4.33-9.55,7.4-14.77,10.19-17.05,9.1-36,14.69-54.59,19.75-63.72,17.37-129.87,26.33-195.33,34.13-11.36,1.36-11.5,19.37,0,18,70.54-8.41,142.37-17.58,210.7-37.77,23.38-6.91,75.13-19.73,76.11-51.64h-18c-.08,246.43-13.72,493-43.38,737.64-26.21,216.31-64.88,431.5-120.75,642.19-46.82,176.57-105.45,351.2-185.5,515.67-61,125.25-134.86,248.32-234.51,346.85-73.63,72.79-166.12,133.79-271.38,144.58-11.7,1.2-23.45,1.77-35.21,1.8v18c19.92-.18,34.92-15.38,45.86-30.43,17.64-24.31,28.82-53.49,38.67-81.62,34.66-99.08,52.55-204.52,68.9-307.88,24.89-157.37,41.78-316,55.66-474.69,17.7-202.42,29.88-405.31,38.77-608.3q15.42-352.18,18.07-704.77.41-46.2.63-92.4c.05-11.59-17.95-11.6-18,0Z"/><path class="cls-2" d="M1662.44,1073.93q99.63,3.66,199.34,4.4,102.6.81,205.21-1.25,55.29-1.12,110.57-3.15c11.54-.42,11.6-18.43,0-18q-99.63,3.66-199.34,4.4-102.6.81-205.21-1.25-55.29-1.12-110.57-3.15c-11.58-.43-11.56,17.58,0,18Z"/></svg>