<svg id="Layer_1" data-name="Layer 1" xmlns="http://www.w3.org/2000/svg" viewBox="0 0 2299.69 3813.09"><defs><style>.cls-1{fill:#333;}.cls-2{fill:#998675;}</style></defs><title>Frapuccino copo</title><path class="cls-1" d="M3069.85,164.1c-.44-27.65-36.29-42-57.42-50.45-49.09-19.64-102.3-29.76-154.15-38.94-177.86-31.49-359.55-43.55-539.76-51.86q-357.43-16.49-715.63-3.33c-190.51,6.81-382,18.23-570.6,46.9-59.24,9-119.06,19.28-176.35,37.25-26.66,8.36-66.71,19.5-81.75,45.91a30.26,30.26,0,0,0-4,14.52c-.18,11.59,17.82,11.59,18,0,.05-2.6-.11-.27,0-1a11.7,11.7,0,0,1,.74-2.77c.22-.52-.65,1,.54-1.16.53-.94,1.09-1.85,1.68-2.74,1-1.44,7.1-7.22,9.48-8.93,12.78-9.16,27.72-15.26,42.41-20.57,50.11-18.08,103.32-28.1,155.69-37,176.4-30,356.27-41.7,534.83-49.65q347.31-15.45,695.3-3.07C2416.45,43.74,2605,54.66,2790.89,82c59.47,8.74,119.29,18.82,177.08,35.63,18.3,5.33,36.68,11.25,53.82,19.68a122.56,122.56,0,0,1,18,10.52,72.23,72.23,0,0,1,9.11,8.66c1.05,1.58,2.78,5.23,2.22,3.9,1.37,3.25.71,2.17.74,3.73.18,11.57,18.18,11.61,18,0Z" transform="translate(-770.15 -13.79)"/><path class="cls-2" d="M3051.64,552.2C2980.12,2048,2500.73,3204.38,1920,3204.38,1338.27,3204.38,858.23,2044,788,544.46l9.53-.57c0,68.19,502.55,123.47,1122.47,123.47s1122.47-55.28,1122.47-123.47S2539.92,420.42,1920,420.42,797.53,475.7,797.53,543.89,1300.08,667.36,1920,667.36s1122.47-55.28,1122.47-123.47" transform="translate(-770.15 -13.79)"/><path class="cls-1" d="M3042.64,552.2c-13.37,277.75-40.87,555-86,829.39-39.65,241-92.6,480.23-164.85,713.63-60.2,194.51-133.63,386.2-230.76,565.47-75,138.33-164.91,272.84-282.61,378.61-89.23,80.18-198.76,143.78-320.28,154.41-118,10.33-231.14-30.9-326.65-98.36-120.57-85.16-214.2-205.48-291.58-329.73-102.28-164.21-179.78-343.32-243.84-525.48-77.84-221.37-135.76-449.58-180.59-679.79-51.81-266-85.81-535.32-105.78-805.51Q801.91,649.73,797,544.46l-9,9,9.53-.57-9-9c.38,17.32,17.78,28.06,31.57,34.87,27.35,13.49,57.76,21,87.35,27.71,104.95,23.76,213.22,34.38,320.25,43.62,156.08,13.47,312.74,20.37,469.34,23.84q267.8,5.94,535.7-2.42c149.44-4.76,299-12.72,447.76-27.8,96.24-9.76,195-20,288.37-46.39,22.7-6.42,102.85-27.72,78.41-67-10.52-16.92-34.17-25.12-51.82-31.45-33.71-12.07-69.16-19.47-104.29-26.06-115.21-21.6-232.66-32.17-349.45-40.74-162.55-11.91-325.56-17.67-488.52-19.79-176.77-2.3-353.65-.26-530.29,7.09-141.9,5.9-283.93,14.76-425,31.45-51.18,6.06-102.32,13.08-153,22.73-34.6,6.59-69.56,14-102.69,26.15C825,506,802,514.32,792.16,531.22c-8.76,15.06.43,29.47,12.9,38.61,19.84,14.54,45.56,21.81,68.93,28.29,40.45,11.21,82,18.66,123.39,25.17,125,19.64,251.5,29.85,377.71,37.57,168.59,10.32,337.54,14.81,506.44,15.43,173.09.64,346.26-2.76,519.12-11.79,133.28-7,266.72-16.69,399-34.89,45.67-6.29,91.33-13.55,136.28-23.91,29-6.69,59-14.17,85.68-27.8,13.28-6.78,29.5-17.34,29.87-34,.25-11.59-17.75-11.58-18,0a6.87,6.87,0,0,1-1.35,3.89,27.39,27.39,0,0,1-6.2,6.45c-5.46,4.44-15.29,9.33-23,12.59-28.72,12.21-59.89,19.19-90.31,25.59C2807.23,614.57,2699.18,625,2592,633.8c-323.71,26.66-650.06,30-974.59,20-145.83-4.48-291.71-12-436.95-26-97.18-9.38-196-19.69-290.77-44.11-23.93-6.17-49.76-12.78-70.85-26.19a37.29,37.29,0,0,1-8-6.18,22.77,22.77,0,0,1-3.74-5c-1.16-3.07-.44-5.08,2.07-8.07,11.43-13.61,35-20.61,52.39-26.13C897.18,500.79,934.15,493.48,971,487c115.2-20.2,232.26-30.37,348.85-38.5,158.09-11,316.58-16.42,475-18.35,309-3.77,620.48,1.81,927.85,36.4,86.1,9.69,175.53,19.44,258.33,46.36,11.32,3.69,22.61,7.76,33.16,13.34,6.48,3.43,14,8.62,16.73,11.94s1.91,2.29,2.67,5.64c-.28-1.23-.63,2.43-.48,2.12-2.65,5.13-6.82,8.36-12.84,12.08-22.14,13.69-49.07,20.38-74,26.66-40.59,10.19-82,17.31-123.32,23.5-123.78,18.55-249,28.24-373.82,35.59-330.4,19.47-662.77,20.07-993.3,3.53-131.43-6.57-263-15.81-393.52-32.8-46.38-6-92.72-13.11-138.46-22.89-29.82-6.37-60.5-13.29-88.53-25.6-7.38-3.25-16.73-8-21.89-12.4-2.94-2.5-4.39-4-5.5-5.87a6.87,6.87,0,0,1-1.35-3.89c-.1-4.64-4-9.29-9-9l-9.53.57c-4.68.28-9.24,3.9-9,9,13.25,281,41,561.51,86.57,839.18,40,243.64,93.51,485.53,166.86,721.39,60.78,195.44,134.93,388.15,232.88,568.18,75.67,139.06,166.8,274.54,285.57,380.62,91.44,81.65,202.25,145.17,326,157.42,119.35,11.81,235.79-28.17,333.42-95.28,122.33-84.08,217.8-203.37,296.76-327.64,103.86-163.47,182.43-342.56,247.53-524.56,80-223.49,139.19-454.23,185-687,52.91-268.79,87.67-541.11,108.13-814.24q7.88-105.07,12.89-210.33c.55-11.58-17.45-11.55-18,0Z" transform="translate(-770.15 -13.79)"/><path class="cls-1" d="M2053.5,3175.49c.29,105,54.62,198.9,126.42,272.27,94.88,96.95,217.63,164.68,341.57,217,86.68,36.6,176.32,65.83,267.31,89.69l-6.29-11.07c-.86,4.81.4,3.1-.19,1.59.11.27-1.22,3.88.35-.45-1,2.72.91-.79-.87,1.26a15.69,15.69,0,0,1-1.55,1.39c2.26-2,.22-.16-.47.26-1.68,1-3.35,2-5.11,2.87-.86.43-1.73.82-2.61,1.22a7.8,7.8,0,0,1-1.72.71q-3.87,1.5-7.82,2.8c-6.27,2-12.64,3.77-19.05,5.33-38.59,9.44-78.36,14.35-117.78,18.82-135.77,15.38-272.74,21.28-409.25,25.34q-266.55,7.92-533.33,1.57c-143.48-3.32-287.26-8.89-430.15-22.85-45-4.4-90.11-9.38-134.49-18.1-13.93-2.73-27.9-5.78-41.39-10.24q-3.75-1.24-7.42-2.67a42.6,42.6,0,0,1-4.61-2.07c-1.66-.83-3.24-1.77-4.83-2.73-.41-.25-2.33-1.74-1-.68s-.68-.6-1-1c-2-2.3.33,1.54-.87-1.26,1.69,3.93.21.87.35.45-.59,1.85.56,2.59-.19-1.59l-6.29,11.07c153-40.11,304.7-94.94,440.59-176.88,100-60.32,197.84-138.76,253.46-243.69,25.91-48.87,41.1-102.92,41.25-158.39,0-11.59-18-11.6-18,0-.28,101.72-54.15,192-124,262.46-93.87,94.67-214.91,161-336.92,212.06-84.73,35.46-172.33,63.8-261.13,87.08-5,1.32-7.14,6.33-6.29,11.07-.71-4,.16,1.62.63,3a18.37,18.37,0,0,0,3.93,6.5,35.88,35.88,0,0,0,9,6.81c9.83,5.57,21.16,8.82,32,11.7,38.33,10.13,78.18,15,117.46,19.7,137.36,16.31,276.11,22.25,414.29,26.45q271.2,8.25,542.66,1.69c146.16-3.44,292.71-9.09,438.23-23.9,44.87-4.57,90-9.7,134.18-18.86,13.55-2.81,27.19-5.93,40.19-10.74,8-3,17-6.5,22.87-13.13a17.74,17.74,0,0,0,3.7-6.22c.47-1.4,1.34-7,.63-3,.85-4.74-1.23-9.74-6.29-11.07-150-39.33-298.49-92.78-432.08-172.54-98.38-58.74-194.68-134.82-249.94-237.38-25.17-46.71-39.91-98.48-40.06-151.68,0-11.58-18-11.61-18,0Z" transform="translate(-770.15 -13.79)"/><path class="cls-1" d="M2726.91,3720c-74.62,14.14-151.17,19.4-226.82,24.55-116,7.88-232.28,12-348.51,14.46q-206.77,4.32-413.61.92c-120.55-1.95-241.13-5.71-361.49-13-81.24-4.94-163.08-10.34-243.49-23.41q-10-1.62-19.91-3.5c-11.33-2.14-16.18,15.2-4.79,17.36,75.1,14.24,152.12,19.74,228.26,25,116.63,8,233.52,12.2,350.38,14.66q208.26,4.38,416.61.92c120.82-2,241.67-5.75,362.3-13.14,82.08-5,164.69-10.7,245.94-23.91q10-1.62,19.91-3.5c11.37-2.15,6.56-19.5-4.78-17.35Z" transform="translate(-770.15 -13.79)"/><path class="cls-1" d="M2255.58,299.33h0a9.42,9.42,0,0,0-2.64-6.37,6.9,6.9,0,0,0-2.9-1.86,6.74,6.74,0,0,0-3.46-.77,9,9,0,0,0-9,9h0a9.36,9.36,0,0,0,2.63,6.37,6.9,6.9,0,0,0,2.9,1.86,6.78,6.78,0,0,0,3.47.77,9,9,0,0,0,9-9Z" transform="translate(-770.15 -13.79)"/><path class="cls-1" d="M1920,3195.38c-132.26-.33-252.77-63.4-350.39-149-129-113.06-225.19-260.73-304.36-411.47-105-200-182.17-414.26-244.24-631.12-74.48-260.23-126.76-526.68-163.67-794.71-42.24-306.79-63.86-616.43-68.33-926q-.85-59.49-.86-119h-18c1.21,38.91,66.5,54.8,94.75,63.15,86.43,25.54,177.28,37.18,266.52,47.81,5.14.62,8.6-4.64,9-9V266h-18c2.69,306.61,16.88,613.2,45.1,918.54,24.66,266.75,59.71,532.84,110.55,795.92,41.28,213.64,92.41,426.39,164.51,631.91,51.72,147.39,113.56,296.76,206.55,423.44,58.18,79.26,137.27,160.6,239.38,175.22a228.7,228.7,0,0,0,31.48,2.35c11.58,0,11.6-18,0-18-98.17-.36-177.85-71.24-236-143.52-93.72-116.44-155.65-258.59-207.22-397.66-73-196.76-124.78-401.22-167-606.57-52.54-255.62-89.18-514.44-115.6-774-30.12-296-46.68-593.25-52.17-890.66q-1.1-58.47-1.58-117c-.11-11.77-17-11.35-18,0v.06l9-9c-83.21-9.92-167.31-21.28-248.32-43.36-23.74-6.47-48-13.65-69.79-25.29-8.86-4.74-24.81-13.2-25.16-24.31-.35-11.55-18-11.63-18,0,.11,315.92,17.8,632,56.26,945.59,34,277,83.72,552.65,156,822.37,60.21,224.57,135.76,446.54,238.54,655.45,78.66,159.89,174.52,317,303.41,441.68,96.17,93,215.4,168,350.95,181.9,14.84,1.52,29.74,2.25,44.65,2.29C1931.58,3213.41,1931.6,3195.41,1920,3195.38Z" transform="translate(-770.15 -13.79)"/><path class="cls-1" d="M2699.57,266c-2.6,296.85-16,593.66-42.45,889.35-23.38,261.36-56.73,522.06-104.9,780.05-39.43,211.17-88.27,421.36-156.16,625.33-49.89,149.88-109.46,300.51-197.42,432.59-54.29,81.53-127.59,169.23-226.52,195.24-17.49,4.59-37.12,8.28-55.29,6.68a87.84,87.84,0,0,1-9.95-3,55.22,55.22,0,0,1-11.27-7.5c-22.73-19.81-36.7-50.17-48.46-78.07-20-47.48-34.1-97.52-46.67-147.39-17.33-68.77-31-138.44-43.21-208.29-33.39-191.59-55.38-385.16-73.71-578.71-23.77-251.1-40.19-502.88-52.47-754.78q-21.58-443.13-26.63-886.87-1.5-115.65-2-231.3a9.16,9.16,0,0,0-9-9c-154.28-5.75-308.63-15.21-462-33.27-11.48-1.35-11.38,16.66,0,18,153.37,18.06,307.72,27.52,462,33.27l-9-9q2.24,464.14,20.23,928c10.68,266,25.68,531.86,47.78,797.15,17.41,209,38.74,417.84,70.24,625.19,21,138.21,44,278.89,88.54,411.83,12.61,37.69,26.93,76.6,49.39,109.69,13.28,19.56,31.64,40.31,56.86,42.07,40.78,2.85,84.24-12.41,119.41-31.72,44.61-24.49,82.87-59.77,116.05-98,94.71-109.21,157.64-245,210.06-378.41,74.28-189,127-386.42,170.19-584.64,53.85-247.07,91.89-497.51,120.14-748.72,32.79-291.6,51.91-584.71,60.11-878q3.2-113.86,4.15-227.77c.11-11.58-17.89-11.59-18,0Z" transform="translate(-770.15 -13.79)"/><path class="cls-1" d="M2246.58,308.33q98.45-3.65,196.77-9.82,88-5.62,175.79-13.9,44.76-4.31,89.44-9.55c4.47-.53,9.49-3.7,9-9V266c-.45-4.83-3.81-9-9-9-4.52,0-9.45,4.14-9,9v.06l9-9c-54.4,6.43-108.93,11.66-163.53,16.09q-92.4,7.5-185,12.17-56.72,2.94-113.46,5c-11.55.43-11.61,18.43,0,18Z" transform="translate(-770.15 -13.79)"/><path class="cls-1" d="M2237.58,299.32q-2.16,449.06-19,897.89c-10.07,259.19-24.23,518.28-44.86,776.86-16.66,208.78-37.06,417.48-66.9,624.82-20.27,140.82-43.09,283-83.37,419.66-12.27,41.63-26,83.68-46.64,122-6.83,12.73-14.41,25.19-23.71,35.54-7,7.76-15.34,14.69-22.39,17.2-5.36,1.9-6.78,2-10.67,2.06-11.58.1-11.61,18,0,18,133.61-.33,255.64-62.23,355.41-147.57,131.32-112.33,229.59-261.12,310-412.6,106.25-200.09,184.43-414.76,247.29-632,76.44-264.2,129.8-534.94,167.3-807.29,42.45-308.42,64.47-619.56,69-930.81q.86-59.49.86-119c0-11.61-17.65-11.57-18,0-.35,11.1-16.29,19.57-25.16,24.31-21.8,11.64-46.05,18.82-69.79,25.29-81,22.08-165.11,33.44-248.32,43.36-11.36,1.36-11.5,19.37,0,18,89.24-10.63,180.09-22.27,266.52-47.81,28.27-8.35,93.54-24.23,94.75-63.15h-18c-.11,312.47-17.41,625.07-55,935.32-33.27,274.48-82.3,547.56-153.2,814.92-59.42,224.09-133.86,445.7-235.45,654.44-77.39,159-171.24,315.21-297.74,440.27-93.86,92.8-211.66,170.29-345.8,184-14.84,1.52-29.74,2.25-44.65,2.29v18c24.33-.22,42.72-19,56.06-37.4,22.26-30.64,36.38-67.44,48.79-102.92,44-125.63,66.64-259.32,87.37-390.37,31.53-199.34,52.91-400.28,70.49-601.27,22.44-256.66,37.89-513.93,49.16-771.31q19.56-446.55,22.91-893.63.53-58.59.8-117.16c.05-11.59-17.95-11.6-18,0Z" transform="translate(-770.15 -13.79)"/><path class="cls-1" d="M1593.42,308.33q126.21,4.65,252.5,5.57,130.57,1,261.16-1.59,69.77-1.43,139.5-4c11.54-.42,11.6-18.43,0-18q-126.2,4.65-252.5,5.57-130.57,1-261.16-1.59-69.76-1.43-139.5-4c-11.58-.42-11.56,17.58,0,18Z" transform="translate(-770.15 -13.79)"/></svg>