<svg id="Layer_1" data-name="Layer 1" xmlns="http://www.w3.org/2000/svg" xmlns:xlink="http://www.w3.org/1999/xlink" viewBox="0 0 4642.8 3239.85"><defs><style>.cls-1{fill:none;}.cls-2{clip-path:url(#clip-path);}.cls-3{fill:#534741;}</style><clipPath id="clip-path" transform="translate(-207.65 -463.43)"><path class="cls-1" d="M3462.86,202.64C3365.37,2241.7,2711.89,3818,1920.25,3818c-793,0-1447.37-1581.74-1543.11-3625.91l13-.78c0,93,685.05,168.32,1530.11,168.32s1530.11-75.36,1530.11-168.32S2765.3,23,1920.25,23,390.14,98.36,390.14,191.31s685.05,168.32,1530.11,168.32,1530.11-75.36,1530.11-168.32"/></clipPath></defs><title>frapuccino ganache</title><g class="cls-2"><path class="cls-3" d="M244.9,613.43c200.45,208,432.69,383.22,683.82,525.48,252.79,143.19,523.64,253.41,802.14,335.46,291,85.72,590.2,140.18,891.87,170.5,346.81,34.87,696.07,38.92,1044.2,26.36,351-12.66,701-42.11,1050.64-74.22q65.49-6,131-12.12c5.71-.54-3.48-149.68,0-150-349.57,32.56-699.39,64.19-1050.15,80.84-349.6,16.58-700.43,18.26-1049.52-9.52-309.19-24.6-616.54-72.67-916.26-153.2-279.54-75.1-552.33-177.54-808.75-312.21C768.57,906.73,529.77,740.24,321.7,540.22q-39.15-37.64-76.8-76.79c1,1-.55,23.95-.53,22-.19,17.67-.23,35.35-.22,53s0,35.35.22,53c0,4-2,19.37.53,22Z" transform="translate(-207.65 -463.43)"/><path class="cls-3" d="M208.44,2341.17c174.26,152.09,381.46,264.06,602.65,331s455.91,89.24,685.53,63a1580.55,1580.55,0,0,0,337.15-76.15c123.38-42.67,241.1-99.83,356.93-159.65,230.56-119.1,459-250.84,715.41-305.65,258.49-55.26,532.15-37.82,781.51,49.88q46,16.18,90.83,35.54c-2.33-1,.5-45.49.5-50,0-5,3.6-48.24-.5-50-243.19-104.49-514.34-140-776.34-102.52-262.49,37.53-496.64,157.73-728.58,279.51C2158,2416.83,2042,2477.33,1920.88,2526.3c-110.49,44.69-225,77.94-342.66,97.47-227.06,37.71-461.7,26.69-684.9-28.93C669.32,2539,456.15,2438,274.15,2295.56q-33.6-26.28-65.71-54.39c.54.47-.37,16.26-.35,14.64-.12,11.79-.15,23.57-.15,35.36s0,23.57.15,35.35c0,2.43-1.22,13.27.35,14.65Z" transform="translate(-207.65 -463.43)"/><path class="cls-3" d="M384.81,1516.69C589,1662.62,799.9,1808.91,1039.37,1890.75c120.4,41.15,246.27,63.42,373.65,62.24,131-1.21,261-25.32,386-63.51,255.5-78,486.94-213.33,714.08-350.94,225.94-136.89,452.69-279,703-367.73,238.14-84.39,502.76-123.28,750.12-56a925.35,925.35,0,0,1,90.93,30c-5.29-2,5.93-47.71,0-50-239.93-92.76-505.29-75.31-748.37-4-254,74.53-484.19,209.17-709.23,345.36-227.53,137.69-454.68,279.73-705.63,371.48-245.22,89.66-508.84,126.57-764.53,60.22-244.77-63.52-461.84-202.19-666.68-345.92q-39.07-27.42-77.88-55.23c1.87,1.34-.25,22.09-.25,25,0,3.38-2.54,23,.25,25Z" transform="translate(-207.65 -463.43)"/><path class="cls-3" d="M833.29,3124.07c130.54,96,285.26,152.8,444.66,177.79,164.5,25.79,332.56,18.85,496.26-9.19,186.19-31.88,366.83-89,545.12-150.29,178.75-61.44,356.12-127.45,538.4-178,181.59-50.33,369-85.78,558.05-83.73q35.2.39,70.37,2.53c-.62,0,1.37-49.92,0-50-188.81-11.26-377.19,16.83-559.92,63-183.58,46.41-361.81,110.79-540.41,173.1-178.15,62.15-357.66,122.53-542.8,160.39-165.88,33.92-336,48.47-504.8,30.12-160.17-17.42-318.62-64.65-455.18-151.61q-25.45-16.22-49.75-34.17c1.91,1.41-.25,22-.25,25,0,3.45-2.57,22.92.25,25Z" transform="translate(-207.65 -463.43)"/><path class="cls-3" d="M460,2175.81c257.87-62.53,526-24.21,775.06,57.53,251.77,82.65,484.59,209.82,718.39,332.48,233.63,122.57,471.93,241.78,729.11,306.39,267.6,67.23,546,76.43,820.1,55.16,277.37-21.53,551.34-73.11,823.61-128.61q51.51-10.52,103-21.17c3.65-.76-2.93-49.4,0-50-273.39,56.47-547.68,112-825.65,140.63-272.45,28.08-549.67,29.85-819.3-23.24C2522,2793.32,2278.65,2683.72,2042.24,2562c-235.5-121.23-466.48-253.47-715.24-346.39-244-91.16-509-148-769.67-109-32.73,4.9-65.18,11.38-97.34,19.18-4.16,1,3.46,49.16,0,50Z" transform="translate(-207.65 -463.43)"/><path class="cls-3" d="M1260.15,3625.87c137.94,51.48,284.47,74.64,431.36,77.16,149.85,2.57,299.46-15.36,446.49-43.15,149.51-28.26,296.52-67.5,443.37-107,150.88-40.56,301.9-81.34,455.34-111.23,151.77-29.56,306.28-48.28,461.12-44.21q29.37.77,58.7,2.64c-.68,0,1.42-49.91,0-50-154.67-9.7-309.61,4.24-462,30.87-154.57,27-306.6,66.56-458.06,107.13-147.62,39.54-295,80.36-444.75,111.17-146.23,30.07-294.88,51.37-444.34,53.77-146.67,2.35-294.27-14.13-434.35-58.84q-26.65-8.51-52.87-18.34c1,.37-.25,22.84-.25,25,0,2.37-1.61,24.31.25,25Z" transform="translate(-207.65 -463.43)"/></g></svg>