<svg id="Layer_1" data-name="Layer 1" xmlns="http://www.w3.org/2000/svg" viewBox="0 0 3858.97 2597.49"><defs><style>.cls-1{fill:#f2f2f2;}.cls-2{fill:#333;}</style></defs><title>frapuccino chantilly</title><path class="cls-1" d="M2803.79,1647.8l.79-1.32a212.63,212.63,0,0,0,4.6-43.91c0-169.06-202.49-315.31-496.82-385.35-.25-13.79-2.38-27.94-2.32-40.4.22-39.3,5.85-78.88,13.77-117.3a711.4,711.4,0,0,1,90-228.12c24.5-39.88,54.33-84.54,41.81-129.75-8.7-31.44-37.16-54.31-68-64s-64-8.2-96.09-4.81c-109.54,11.55-215.89,43.77-320.09,79.81-121,41.86-242.86,90.64-339.76,175.06-58.37,50.86-106.46,116.2-132.71,189.79-14.66,41.1-33.15,104.48-17,150.25l.26.71c-270.29,73.69-452.75,213.62-452.75,374.11a213.06,213.06,0,0,0,4.92,45.43l-4.18-11.29c-329.49,151.54-540.75,385.44-540.75,647.88a488.32,488.32,0,0,0,7.91,87.51h0C187.52,2530.29-1.33,2740.39-1.33,2971q0,14.55,1,29H-.5c0,115.76,859.54,209.6,1919.83,209.6s1919.84-93.84,1919.84-209.6H3839q1-14.43,1-29c0-230.75-189.16-441-499.48-599.24l1.28-2.55a488.7,488.7,0,0,0,7.38-84.58c0-262.46-211.28-496.37-540.81-647.91" transform="translate(10.17 -621.38)"/><path class="cls-2" d="M2811.56,1652.35c10.17-17,7.47-47.64,5.92-66.86a230.5,230.5,0,0,0-10.48-52.57c-11.61-35.69-31.4-68-55.33-96.75-62.39-75-151.24-125.92-239.81-163.67-63.68-27.15-129.85-47.78-197.11-64l6.61,8.68c-1.36-35.77-2.34-69.84,2.51-105.53a731.66,731.66,0,0,1,20.8-99.69c18.09-64.17,45.4-124.77,80.27-181.52,27.51-44.78,61.21-101.28,29.9-153-28.84-47.67-87.66-58.56-139.1-55.66-132.69,7.49-263.4,51.63-387.4,96.54C1813.67,759.87,1698.5,811.12,1609,896.17c-47,44.65-85.67,98.4-110.71,158.28-21.49,51.39-45.25,121.26-24.75,176.4l6.29-11.07c-101.81,28-202.92,66.86-290.71,126.44C1125,1389.75,1065.06,1446.48,1036.3,1520c-16.37,41.83-19.46,86.45-10.57,130.39l17.36-4.78-4.18-11.3c-2.15-5.81-7.63-8-13.22-5.38-228,105.44-469.32,280.25-531.21,538.42a507.47,507.47,0,0,0-13.29,91.09,489.91,489.91,0,0,0,.43,59.24c1.15,16.91.26,43.51,8,59l3.23-12.31c-196.63,100.85-409,249.36-481,469.47A447.1,447.1,0,0,0-9.34,2999.94l9-9H-.5c-4.79.34-9.1,3.85-9,9,.72,40.65,62.39,60.26,92.51,70.87,82.46,29,170.42,43.8,256.51,57.32,300.92,47.25,607,65,911.05,77.34q599.58,24.33,1200.13,4.94c321.52-10.09,644.37-26.89,963.38-69.92,98.47-13.29,197.7-28.33,293.62-54.82,30.18-8.34,60.45-17.84,88.71-31.51,16.7-8.08,35.72-18.51,45.78-34.81a38,38,0,0,0,6-19.41c.09-5.11-4.21-8.66-9-9H3839l9,9c13.2-218.81-139-396.07-306.2-517-62.2-45-128.46-84-196.73-119l3.23,12.32c6-12.1,6-28.72,7.35-42.07a484.7,484.7,0,0,0,2.44-59.14,505.29,505.29,0,0,0-8.49-82.31c-10.36-55.74-30.4-109.49-57.27-159.33-60.47-112.16-154.15-203.67-257.1-277.12-69.68-49.71-144.67-91.49-222.31-127.39-10.45-4.83-19.6,10.68-9.09,15.54,220.74,102.07,454.47,268.35,520.11,516.22a479.59,479.59,0,0,1,16,138.17q-.54,17.72-2.33,35.36c-1,9.66-.46,24.08-4.9,33-2.07,4.16-1.32,10,3.23,12.32,192.06,98.39,401.9,242.75,473,457.68a432.58,432.58,0,0,1,21,162.76c-.31,5.1,4.39,8.68,9,9h.17l-9-9c-.18,10.38-12.15,20.84-23.48,28.06-22.21,14.15-47.7,23.11-72.64,31.08-85.66,27.39-175.62,42.17-264.34,55.47-297.06,44.52-598.66,61.78-898.53,73.6q-584.17,23-1169.22,4.69c-316.35-9.64-633.81-26-947.9-66.46-100.3-12.92-201.12-27.86-299.2-53-31.28-8-62.74-17-92.46-29.73-16.84-7.24-37.28-16.11-48.81-31.14-3.18-4.15-5-8.61-5.09-12.58l-9,9h.16c4.63-.32,9.31-3.86,9-9-13-215.94,140-389.72,305.65-507.46,59.54-42.31,122.66-79.28,187.62-112.6,4.52-2.32,5.31-8.16,3.23-12.32-4-8-3-22.77-4-31.63q-1.54-14.58-2.21-29.24a491.24,491.24,0,0,1,.34-50.62,478.33,478.33,0,0,1,11.43-79.33c12.28-53.32,33.31-104.2,60.77-151.45,62.1-106.83,154.55-193.9,255.55-263.66,65.54-45.27,135.46-83.75,207.7-117.15l-13.22-5.38,4.18,11.29c4,10.82,19.68,6.68,17.36-4.78-20.09-99.31,35.15-186.24,108.27-248.39,94.46-80.3,215.09-127.54,333.27-160.08,4.39-1.21,8-6.49,6.29-11.07-17.78-47.8,1.84-106.74,18.89-152.13,20.23-53.88,52.6-103.05,91.91-144.91,80.49-85.69,188.7-139.15,297.09-180.58,113.72-43.46,231.73-83,352.39-101.39,56.92-8.69,131-20.69,176.26,24.52,49.41,49.37,3.17,114.23-25,161.13a718.47,718.47,0,0,0-77,181.1,743.52,743.52,0,0,0-19.49,96.68c-4.8,36.06-4,70.57-2.63,106.73.15,3.86,2.68,7.74,6.61,8.68,104,25,206.93,60.45,299,115.75,69,41.43,136.42,96.59,170.92,171.11a224,224,0,0,1,17.26,54.48A196.83,196.83,0,0,1,2800,1595c.45,12.89,2.62,37.19-4,48.3-6,10,9.59,19,15.54,9.09Z" transform="translate(10.17 -621.38)"/><path class="cls-1" d="M496.12,2364.85c64.84,106.94,677.28,190.79,1423.21,190.79,744.77,0,1356.45-83.58,1422.91-190.29l-1.72,6.37" transform="translate(10.17 -621.38)"/><path class="cls-2" d="M488.35,2369.39c20.51,33.11,64.95,49.63,99.54,62.45,65.49,24.27,134.58,39.09,203.07,51.93,216.58,40.6,437.84,58,657.64,69.23,279.54,14.3,560,15.52,839.65,4.58,231.55-9,464.07-25.14,693-62.23,76.57-12.41,153.34-27,227.66-49.52,43.39-13.17,93-28.49,127.33-59.75a80.46,80.46,0,0,0,13.77-16.19l-16.45-6.93-1.71,6.37c-3,11.2,14.34,16,17.35,4.79l1.72-6.38c2.69-10-11-15.48-16.45-6.93-19.17,30.13-65.38,45.61-97.85,57.06-66.67,23.49-136.52,38.16-205.94,50.81-215.13,39.21-434.62,56.09-652.79,66.93-275.4,13.68-551.62,14.75-827.14,4-228-8.91-457-24.56-682.54-60.64-76-12.16-152.13-26.45-226-48.21-42.23-12.43-92-26.47-125.82-56.33a63.76,63.76,0,0,1-12.46-14.11c-6.09-9.83-21.67-.8-15.54,9.08Z" transform="translate(10.17 -621.38)"/><path class="cls-2" d="M1025.85,1648.78c14.48,19.49,42.35,27.74,64.45,34.55,42.14,13,86,20.65,129.49,27.37,137.09,21.15,276.17,30.14,414.65,35.87q265.66,11,531.76,1.45c143-5,286.41-13.66,428.16-33.7,46.62-6.59,93.43-14.24,138.92-26.63,24.75-6.74,54.59-14.4,73.92-32.44,4.37-4.07,6.51-8.63,8.94-14,4.72-10.48-10.79-19.64-15.54-9.09-.8,1.78-1.7,3.54-2.4,5.35-.55,1.39-1.64,3.21-.54,1.7a28.93,28.93,0,0,1-4.11,4.17c-.52.48-2.63,2.13-1,.87-.94.71-1.9,1.4-2.88,2-2.18,1.45-4.41,2.8-6.7,4.07-11.59,6.42-23.06,10.46-36,14.57-40.11,12.73-81.91,20.31-123.39,26.94-133.25,21.31-268.69,30.11-403.37,36q-258.94,11.38-518.36,3.1c-144.52-4.44-289.46-12.51-432.89-31.32-47.89-6.28-95.86-13.75-142.82-25.22-27-6.6-56.05-13.32-78.73-29.26-2.11-1.48.42.45-1.14-.86-.73-.6-1.46-1.21-2.15-1.86-1-.89-4.26-4.82-2.74-2.78-6.83-9.19-22.46-.23-15.54,9.09Z" transform="translate(10.17 -621.38)"/><path class="cls-1" d="M1482,1227.75a77.58,77.58,0,0,0,17.2,28.39c85.85,89.13,295.1,82.21,405.17,82.21,83.13,0,167.1-5.48,248.79-21.66,44-8.71,128.92-20.53,152.83-65.48,5.39-10.14,6.61-21.92,6.39-34" transform="translate(10.17 -621.38)"/><path class="cls-2" d="M1473.3,1230.14c10.21,28.08,33.07,47.54,58.14,62.45,23,13.68,48.41,23.29,74.11,30.49,56.36,15.79,115.55,21,173.84,23.17,56.68,2.14,113.77,2,170.46.52,42-1.09,84-3.82,125.77-8.84,35.16-4.24,69.9-10.57,104.65-17.28,27.17-5.24,54.38-11.35,79.94-22.19,24.2-10.27,49.26-26.42,57.74-52.75,2.94-9.11,3.53-19,3.41-28.49-.14-11.57-18.14-11.6-18,0,.18,15.06-2.7,29.19-12.66,40.15-7.93,8.72-17.78,15.05-28.29,20.36-23.46,11.84-49.69,18-75.29,23.25-30.42,6.25-61,12-91.77,16.38-40.19,5.67-80.73,8.91-121.27,10.59-57.56,2.4-115.57,2.33-173.17,1-55.57-1.32-111.58-5-166-17-25.38-5.63-50.66-13-74.22-24.14-21.42-10.08-42.54-23-58-41.1a68.86,68.86,0,0,1-12-21.27c-1.66-4.57-6.11-7.65-11.07-6.29-4.4,1.21-7.95,6.48-6.28,11.07Z" transform="translate(10.17 -621.38)"/></svg>