<svg id="Layer_1" data-name="Layer 1" xmlns="http://www.w3.org/2000/svg" xmlns:xlink="http://www.w3.org/1999/xlink" viewBox="0 0 3840 3840"><defs><style>.cls-1{fill:none;}.cls-2{clip-path:url(#clip-path);}.cls-3{fill:#534741;}</style><clipPath id="clip-path"><path class="cls-1" d="M2807.5,1276.34C2751.42,2449.27,2375.52,3356,1920.14,3356c-456.15,0-832.57-909.86-887.64-2085.73l7.48-.45c0,53.47,394.06,96.82,880.16,96.82s880.17-43.35,880.17-96.82S2406.25,1173,1920.14,1173,1040,1216.35,1040,1269.82s394.06,96.82,880.16,96.82,880.17-43.35,880.17-96.82"/></clipPath></defs><title>ganache1Artboard 1</title><g class="cls-2"><path class="cls-3" d="M956.43,1544.49c115.31,119.63,248.9,220.44,393.35,302.27,145.42,82.37,301.22,145.77,461.42,193,167.38,49.31,339.5,80.64,513,98.08,199.5,20.05,400.4,22.38,600.66,15.16,201.88-7.28,403.25-24.22,604.36-42.69q37.66-3.47,75.33-7c1.88-.17.75-69.26.75-75,0-5.49-1.14-75-.75-75-201.09,18.73-402.32,36.93-604.09,46.5-201.1,9.54-402.9,10.51-603.71-5.47-177.85-14.15-354.65-41.8-527.06-88.13-160.8-43.2-317.72-102.12-465.22-179.59-146.84-77.12-284.2-172.89-403.89-287.95q-22.51-21.65-44.18-44.17c1,1-.55,24-.53,22-.19,17.67-.23,35.35-.22,53s0,35.36.22,53c.05,4-2,19.37.53,22Z"/><path class="cls-3" d="M935.46,2527.72c100.24,87.49,219.42,151.9,346.66,190.4s262.25,51.34,394.34,36.26a909.2,909.2,0,0,0,193.94-43.8c71-24.55,138.69-57.43,205.31-91.84,132.63-68.51,264-144.29,411.53-175.82a836.24,836.24,0,0,1,449.55,28.69q26.48,9.32,52.24,20.44c-.16-.07.38-16.84.36-14.64q.18-17.67.14-35.36c0-11.78,0-23.57-.14-35.35,0-1.78.73-14.18-.36-14.65-139.89-60.1-295.86-80.51-446.57-59-151,21.59-285.68,90.74-419.1,160.79-66.47,34.9-133.18,69.7-202.85,97.87-63.56,25.7-129.45,44.83-197.11,56.07-130.61,21.69-265.59,15.35-394-16.65C1200.57,2599.05,1078,2540.92,973.25,2459q-19.32-15.12-37.79-31.29c.54.47-.37,16.26-.35,14.64-.13,11.79-.15,23.58-.15,35.36s0,23.57.15,35.35c0,2.43-1.23,13.27.35,14.65Z"/><path class="cls-3" d="M1036.91,2042.84c117.47,83.94,238.77,168.09,376.52,215.17,69.26,23.67,141.67,36.48,214.94,35.8,75.36-.7,150.11-14.57,222.05-36.53,147-44.88,280.1-122.72,410.76-201.88,130-78.74,260.4-160.51,404.37-211.52,137-48.55,289.2-70.92,431.49-32.24a531.4,531.4,0,0,1,52.3,17.25c-1-.4.25-22.82.25-25,0-2.4,1.66-24.26-.25-25-138-53.36-290.65-43.32-430.49-2.29-146.11,42.87-278.51,120.32-408,198.66C2180,2054.47,2049.34,2136.17,1905,2189c-141.06,51.57-292.7,72.81-439.79,34.64-140.79-36.54-265.66-116.31-383.49-199q-22.49-15.78-44.8-31.77c1.87,1.33-.25,22.09-.25,25,0,5.89,0,11.78.07,17.67,0,1.1-.54,6.81.18,7.33Z"/><path class="cls-3" d="M1294.89,2967.45c75.09,55.24,164.09,87.9,255.78,102.27,94.63,14.84,191.3,10.84,285.47-5.28,107.1-18.35,211-51.2,313.57-86.46,102.82-35.34,204.85-73.31,309.7-102.37,104.46-29,212.24-49.35,321-48.16,13.5.14,27,.65,40.48,1.45-.63,0,1.37-49.92,0-50-108.61-6.48-217,9.68-322.08,36.26-105.61,26.69-208.13,63.73-310.87,99.57-102.47,35.75-205.73,70.48-312.23,92.26-95.42,19.51-193.3,27.88-290.38,17.32-92.13-10-183.28-37.18-261.83-87.21q-14.65-9.33-28.62-19.65c.22.16-.19,8.24-.18,7.32-.06,5.89-.07,11.79-.07,17.68s0,11.79.07,17.68c0,1.1-.55,6.78.18,7.32Z"/><path class="cls-3" d="M1080.16,2422c148.33-36,302.59-13.92,445.84,33.1,144.82,47.53,278.74,120.69,413.24,191.25s271.46,139.07,419.4,176.24c153.93,38.67,314.08,44,471.75,31.73,159.55-12.38,317.15-42.05,473.76-74q29.64-6,59.26-12.18c3.65-.75-2.94-49.39,0-50-157.27,32.49-315,64.42-474.94,80.9-156.72,16.15-316.19,17.17-471.29-13.37-150.87-29.72-290.87-92.76-426.86-162.76-135.47-69.74-268.34-145.8-411.43-199.26-140.37-52.43-292.79-85.11-442.74-62.7-18.83,2.81-37.49,6.54-56,11-1.14.28-.25,22.92-.25,25s1,24.81.25,25Z"/><path class="cls-3" d="M1540.43,3256.1c79.35,29.61,163.64,42.93,248.14,44.39,86.19,1.48,172.25-8.84,256.83-24.83,86-16.25,170.56-38.83,255-61.53,86.79-23.33,173.66-46.79,261.93-64,87.3-17,176.18-27.77,265.24-25.43q16.91.44,33.77,1.52c-.67,0,1.42-49.92,0-50-89-5.58-178.09,2.44-265.76,17.76-88.91,15.53-176.36,38.28-263.49,61.62-84.91,22.74-169.69,46.23-255.83,63.94-84.12,17.3-169.63,29.55-255.6,30.93-84.37,1.36-169.27-8.12-249.85-33.84-10.23-3.26-20.36-6.8-30.42-10.55,1,.37-.25,22.84-.25,25,0,5.89,0,11.79.08,17.68,0,.85-.32,7.14.17,7.32Z"/></g></svg>