<svg id="Layer_1" data-name="Layer 1" xmlns="http://www.w3.org/2000/svg" viewBox="0 0 3840 3840"><defs><style>.cls-1{fill:#57412b;}.cls-2{fill:#333;}</style></defs><title>carneArtboard 1</title><path class="cls-1" d="M137.06,1814.8c3.49-8.47,7-17,9.26-26.65,5-21.15-1.45-37.63,18.64-54,13.74-11.21,30.4-13,47.26-10.17,16.66,2.82,27.72,3.55,45.49,3.55h3341.7c13,0,25.61,2.43,38.29,2,14.5-.48,27.08-3.9,40.72,3.75,8.62,4.84,14.18,13.24,22.08,18.18,10.72,6.72,20.89,6.11,26.75,20,5.62,13.32-3.08,21-2.7,33.11.36,11.67,7.19,22.68,9.44,34.28,5.31,27.41-1.4,54.67-7,81.46-3.72,17.8-1.88,45.31-11.62,60.36-15.67,24.23-39.41,5.47-61.53,10.83-18.81,4.56-34.37,11.9-54.44,11.9H257.71c-23.2,0-26.12-1.84-46.14,8.24-15.11,7.61-32.15,10.39-48.12,3.29-28.67-12.75-26.69-38.34-33.38-63.74-6.28-23.83-24.1-36.53-24.81-63.36-.22-8.34-.1-16.86,2.62-24.74,3.58-10.33,12.18-11.52,17.44-18.95,5.8-8.2,7.86-19.91,11.74-29.33"/><path class="cls-2" d="M145.74,1817.2c5.78-14.13,10.09-27.78,11.66-43,2-19.88,7.44-35.81,29.76-41.19,21.37-5.16,48.6,3.38,70.74,3.49H3584.5c4.41,0,8.82,0,13.22,0h1.69c16.93.31,33.36,2,50.32,1.21,13.79-.63,23,1.68,33.63,11,6.11,5.35,11.29,9.89,18.53,13.65,10,5.19,18.74,6.05,17.86,21.52-.3,5.27-3.38,10.38-3.88,15.75-1.79,19.28,10.19,37,10.94,56.35.82,21.16-4.75,41.35-8.49,62-2.62,14.41-2.31,29.28-5.41,43.58-2.2,10.1-5.68,19.33-16.79,22.45-6.91,1.94-15-.72-22-1.54-14.85-1.73-26.34,1.34-40.66,5.53-11.5,3.36-22.85,6.26-34.92,6.47-11.68.2-23.38,0-35.07,0H373c-38.2,0-76.41.14-114.61,0-8.8,0-17.81-.73-26.56.59-13.39,2-24.23,10.35-37.25,13.46-22.56,5.39-42-5.69-48.69-27.3-4.28-13.84-4.93-28.42-10.41-42-4.45-11-11.64-20.58-16.39-31.41a59.21,59.21,0,0,1-4.71-29.36c1.4-14.27,6.69-16.39,14.48-24.65,9.53-10.1,12.23-23.93,16.93-36.56,4-10.87-13.34-15.57-17.36-4.79-3.08,8.29-4.93,18.58-10.26,25.72-4.1,5.5-10.34,8.53-14.43,14.11-8.4,11.45-8.63,28.85-6.87,42.32,1.68,12.73,7.09,23.59,13.3,34.67,8.37,14.92,12.2,29,15.74,45.52,5.71,26.78,20.39,49,49.72,52.72,15.57,2,29.12-3.06,43.06-9.3,13.43-6,24.58-5.84,39.08-5.78,9.11,0,18.23,0,27.34,0H3495.4c34.61,0,69.4,1,104,0,15.57-.46,29.82-4.61,44.7-8.88,16.33-4.7,28.71-1.74,45.06-1.2,27.79.93,39.33-21.26,42.67-45.88,2.16-15.87,3.46-31.44,6.67-47.17,4-19.77,7.68-39.9,5.89-60.15-1.53-17.18-12.74-34.74-9.81-51.71,2.32-13.47,6-23.5-2.66-36-6.9-10-17.36-11.48-26.88-17.75-15.54-10.23-23.7-23.06-43.81-24.25-17.29-1-34.69.53-52.13-.52q-5-.32-10-.4c-3.2,0-6.41,0-9.61,0H405.69q-71.65,0-143.32,0c-10.17,0-20.34,0-30.47-1-29.66-2.66-59.34-8.74-80.83,17.8-7.18,8.87-9.68,19.1-10.92,30.21a165.86,165.86,0,0,1-11.77,46.85c-4.38,10.72,13,15.38,17.36,4.79Z"/></svg>