<svg id="Layer_1" data-name="Layer 1" xmlns="http://www.w3.org/2000/svg" viewBox="0 0 3840 3840"><defs><style>.cls-1{fill:#ebab47;}</style></defs><title>cheddar inferiorArtboard 1</title><path class="cls-1" d="M158.78,1983.27c14.3-17.71,33.71-29.7,56.81-31.31,27.74-1.93,48.68,13.69,72.13,26,26.26,13.74,54.06,21.18,83.39,13.2,25.32-6.88,47.21-26.61,73.1-30.7,22.84-3.61,44.4,16.08,63.71,25.31,29.59,14.13,58.63,15.46,90.22,7.07,32.08-8.51,62.31-18.36,95.68-20.82,32.07-2.37,64.27-1.14,96.3,1.31,65.94,5,131.77,15.58,198.08,13,34.14-1.31,67.56-7.67,101.38-11.95,29.09-3.7,60.86-6.55,89.19,2.87,13.13,4.36,22.61,13.2,34.43,19.83a103.76,103.76,0,0,0,42.46,12.6c31.26,2.67,59.49-10,87.22-22.59s48.87-18.69,78.15-8.34c28.4,10,55.27,17.77,84.83,6.79,23.27-8.64,45-27.78,71.12-22.85,24.68,4.66,47.07,19.42,70.06,28.88,26.13,10.76,53.32,15,81.13,8.41,25.89-6.14,49-20.75,72.64-32.29,24.59-12,45.8-13.14,71.66-4.34,30,10.23,57.38,24.38,89.45,27.58,33.51,3.34,66.79-4.46,100.12-6.75,35.36-2.44,70.88-1.07,106.13,2.34,33.55,3.24,66.6,9.07,99.89,14.19,14.79,2.28,28.15,3.58,42.6-1.25,15.54-5.19,29.88-10.64,46.36-12.4,34.7-3.72,70.35-2,105.2-2.27,34.5-.3,69-.76,103.51-.64,69.11.25,138.08,3.4,205.88,17.63,32,6.72,64.86,13.76,97.31,5.42,27.83-7.17,51.24-28.6,80.2-31.19,28.56-2.56,57,8.36,84.74,13.24,33.08,5.82,63,4,95.15-6,26.75-8.26,49.36-15.11,77.09-7.78,24.67,6.52,47.84,17.62,72.41,24.5,25.68,7.18,53.77,9.71,79.27.41,12.55-4.57,23-14.25,35.23-18.57,9.56-3.39,18.37,3.26,27.16,7.39,30.12,14.16,54,13.07,84.72,1.22,29.47-11.37,61-9.07,92.11-9.56l104.38-1.65c36.64-.58,36.75-57.59,0-57L3593.52,1924c-32.59.51-67.37-1.64-98.54,9.51-10.7,3.83-23.19,12-34.92,10.6-11.39-1.33-23.15-10.18-33.6-14.41-12.47-5-25.44-7.52-38.86-5.31-16.44,2.71-27.91,12.57-42.37,19.7-21.38,10.55-44.65,3.7-66-3.52-24.05-8.15-47.46-18.83-72.62-23.23-31.47-5.51-59.73.65-89.81,10.08-31,9.73-56.56,9.75-88.17,2.75-28.89-6.4-58.29-13.79-88.07-10.28-31.35,3.69-54.73,23.06-84.11,31.58-31,9-65.46-4.38-96.12-9.8A916.32,916.32,0,0,0,2658,1929.79c-71-4.41-142.24-2.47-213.3-1.84-33.86.29-68.13-.9-101.74,3.84a214.25,214.25,0,0,0-45.1,11.79c-14.24,5.25-29.65-.37-44.22-2.75-68.73-11.23-139.11-19.38-208.71-12.18-33,3.41-66.83,11-99.46,1.45-29-8.47-55.51-24-85.69-28.63-29.59-4.54-56.3,2.41-83,14.77-22.39,10.35-44.75,27.08-69.84,30-24.22,2.78-47.16-10.93-68.25-20.8-24.42-11.44-50.42-22.5-78-20.43-29.38,2.21-50.18,21.28-77.54,28.13-26.33,6.6-55.29-15.06-81.82-17.61-31.94-3.07-61.59,10.72-89.87,23.63-22.62,10.33-48.39,21.09-71.84,7.27-12.9-7.61-23.68-15.83-37.84-21.35-14.5-5.65-29.9-8.29-45.34-9.8-32.9-3.21-65.9,1.7-98.4,6.51-67.28,10-132.2,7.65-199.69.93-66.84-6.65-133.64-13.61-200.52-3.59-31.2,4.68-61.09,19.37-92.23,22.42-27.18,2.66-49.14-17.72-72.62-28.11-27.59-12.21-55-13.06-83-1.62-20.89,8.53-45.59,29-69.28,25.85-27-3.55-50.71-25.73-75.92-35.2-25.54-9.6-55-9.9-81.12-2.19-25.28,7.46-48.55,22.19-65.15,42.73-9.66,12-11.69,28.61,0,40.3,10,10,30.59,12,40.31,0Z"/></svg>