<svg id="Layer_1" data-name="Layer 1" xmlns="http://www.w3.org/2000/svg" viewBox="0 0 3840 3840"><defs><style>.cls-1{fill:#ebab47;}</style></defs><title>cheddar superiorArtboard 1</title><path class="cls-1" d="M3720.53,1746c-34.59-42.82-97.57-59.87-148.87-39.54-24.11,9.56-47.25,30.78-73.32,34.2-24.34,3.21-50-18.26-71.64-26.82-28.09-11.12-55.75-8.85-83,3.59-22.7,10.37-43.81,29.74-70.27,27.11-15.47-1.54-30.53-7.69-45.34-12.07a351.77,351.77,0,0,0-50.05-10.78c-33.24-4.77-66.61-5.74-100.13-4.2-66.16,3.06-131.73,14.25-198,15.17-66,.93-131.56-20.92-197.31-14.39-14.51,1.44-29,3.8-42.76,8.84-15.19,5.59-26.72,14.2-40.42,22.31-24.4,14.43-51.22,2.11-74.56-8.52-27.43-12.49-56.24-25.34-87.15-22.38-26.5,2.54-55.52,24.2-81.82,17.61-12.51-3.13-23.7-10.92-35.32-16.26-14.34-6.6-28.77-11.3-44.65-12.08-26.7-1.32-52,9.56-75.59,20.64-20.92,9.81-44.19,23.82-68.25,20.8-25.16-3.16-47.33-19.56-69.84-30-26.77-12.37-53.47-19.3-83-14.77-30.17,4.63-56.66,20.16-85.69,28.63-32.64,9.51-66.45,1.94-99.46-1.45-35.28-3.64-70.81-3.32-106.15-.61-34.33,2.63-68.58,7.24-102.56,12.79-13.28,2.17-28.7,7.7-41.87,3.67-16.1-4.94-30.59-10.34-47.45-12.71-34.74-4.9-70.24-3.57-105.25-3.88-34.61-.3-69.22-.74-103.83-.77-70.83-.07-141.84,2.44-211.69,15.1-30.61,5.55-64.59,18.48-95.49,8.39-28.24-9.21-50.94-27.22-81.38-30.78-30.81-3.61-61.1,4.38-91,10.92-13.86,3-27.62,5.74-41.87,5.64-16.07-.11-31.19-5.2-46.38-10-29-9.1-56.55-14.51-86.83-9.14-26,4.61-50.1,15.76-75,24-21.7,7.2-44.68,13.14-65.91,1.48-11.95-6.57-22.54-15-36.23-17.94-14.58-3.14-29-.69-42.65,4.8-10.42,4.2-21.43,12.42-32.64,14.11-12.83,1.93-26.64-7.19-38.52-11.21-31.41-10.64-66.71-8.14-99.38-8.66l-104.38-1.65c-36.69-.58-36.7,56.42,0,57L242,1783.9c32.38.51,64.14-1.44,94.73,10.61,29.45,11.61,53.42,11.21,82.1-2.27,7.08-3.33,16.56-10,24.73-8.72,5.62.91,11.78,7.13,16.71,10a123.87,123.87,0,0,0,23.3,10.74c52,17.54,100.48-12.86,149.33-25.8,28.79-7.63,52.36.26,80.08,8.7,31.08,9.46,60.29,10.65,92.16,5,28.52-5,58.23-16.71,87.59-13.07,27.72,3.44,50.46,24.11,77.35,31,32.45,8.32,65.32,1.33,97.31-5.42a766.23,766.23,0,0,1,103.39-14.3c69.69-5,139.7-3.27,209.5-2.66,33.66.3,68.19-1.46,101.7,2.24,15.46,1.7,29.49,6.13,44,11.48,15.18,5.6,29.25,4.61,45,2.17,68.42-10.59,136.51-21.32,206-16.53,34.46,2.37,68.77,10.41,103.41,6.4,30.76-3.56,57.24-17.42,86.16-27.23,25.87-8.77,47.11-7.64,71.66,4.34,24.38,11.89,48.25,27.13,75.1,32.82,27.15,5.74,53.25,1.52,78.67-8.94,23.56-9.69,46.9-25.46,72.43-29.39,25-3.86,46.49,15.25,68.75,23.36,29.65,10.81,56.36,3.35,84.83-6.79,30.32-10.79,52.38-3.42,80.87,9.59,26.81,12.24,54.34,23.91,84.5,21.34a104.11,104.11,0,0,0,42.46-12.6c12.69-7.11,22.78-16.47,37-20.67,27.85-8.18,58.17-5.63,86.57-2,33.82,4.27,67.24,10.64,101.38,11.95,33.59,1.28,67.2-.85,100.64-3.84,65.38-5.86,131.14-15.62,196.91-10.28,32.23,2.62,61.5,12.41,92.51,20.59,31.63,8.35,60.58,7,90.22-7.07,20.42-9.73,42.07-29.71,66.13-24.72,25,5.19,45.92,23.38,70.68,30.11,30.37,8.26,58.89-.06,85.86-14.5,22.54-12.06,42.91-26.62,69.66-24.66,23.13,1.7,42.46,13.55,56.81,31.31,9.68,12,30.23,10.08,40.31,0,11.84-11.84,9.7-28.29,0-40.3Z"/></svg>