<svg id="Layer_1" data-name="Layer 1" xmlns="http://www.w3.org/2000/svg" viewBox="0 0 3840 3840"><defs><style>.cls-1{fill:#ad895f;}.cls-2{fill:#333;}</style></defs><title>pão inferiorArtboard 1</title><path class="cls-1" d="M3725,2276.47c-48.78,8.25-105.43,4.53-143.17,8.22-126.31,12.35-253.23,17.47-380.1,18.51-254.64,2.1-509-12.52-763.43-19.77-321.48-9.16-643.16-6.5-964.76-3.84l-818.12,6.75-415.36,3.44C162.84,2290.42,21,2295.2,21,2182.25V2075.36c0-125.31,151.05-107.09,230.79-102a1893.79,1893.79,0,0,0,423-20.39c87.56,13.81,176.63,14.1,265.27,14.36l2517.06,7.36c89.54.27,179.12.25,268.25,4.28a96.37,96.37,0,0,1,96.37,96.37v106.89C3821.74,2244.4,3778,2267.51,3725,2276.47Z"/><path class="cls-2" d="M3722.62,2267.79c-33.7,5.32-67.8,5.31-101.82,6-31.71.69-63.13,4.28-94.72,6.85-73.16,6-146.49,9.64-219.86,11.68-147,4.08-294,1.53-440.92-3.06-295.65-9.25-590.85-20.66-886.71-21.19s-591.74,3.19-887.59,5.64q-433.93,3.59-867.88,7.18c-66.37.45-183.7,1.48-192.6-87.35-2.78-27.86-.52-56.84-.52-84.79,0-29.15-3-60.89,14-86.37,21.17-31.8,63.25-40.4,98.79-43,36.38-2.65,72.75.6,109,2.94a1889.87,1889.87,0,0,0,215.79,1.48q55.77-2.79,111.31-8.87,23.4-2.57,46.74-5.71c18.82-2.53,38.78-7.73,57.72-6,71,6.61,140.89,12.3,212.36,12.83,74.17.55,148.35.5,222.52.72l443.51,1.3,890.83,2.6,890.82,2.61c72.73.21,145.46.2,218.18.77,37.26.29,74.52.82,111.76,1.91,30.72.91,66.12-2.71,94,12.65,39.1,21.58,45.45,59.78,45.45,100.05,0,27.79.52,55.63,0,83.41-1,54.57-41.43,76.94-90.12,85.62-11.39,2-6.57,19.38,4.78,17.36,41.34-7.37,84-25.08,98.17-68.16,9.49-28.78,5.17-63.94,5.17-93.77,0-31.62,3.53-65.2-10.9-94.45a105.85,105.85,0,0,0-50.13-49c-25.54-11.78-54-10.34-81.5-11.26-152.71-5.11-305.76-3-458.54-3.48l-462.47-1.35L1842.26,1961q-462.18-1.35-924.37-2.72c-76.69-.32-153.71-1.41-229.75-12.31-15.92-2.28-29.2.55-45.18,2.87q-32,4.67-64.07,8.16-55.5,6.09-111.31,8.87a1892.43,1892.43,0,0,1-220.48-1.79c-37.95-2.54-76.14-5.76-114.11-1.78-34.52,3.61-71.68,12.92-95.82,39.69C15.54,2026,12,2056.54,12,2087.5c0,59.48-14.56,139,41.15,178.7,31.47,22.44,72.34,28.64,110,31.31,50.57,3.59,101.82,1.06,152.44.64l461-3.81c307.69-2.54,615.37-5.55,923.06-7.47,306.79-1.91,613.38.34,920,11.65,305.6,11.28,612.29,25.05,917.56-.77,32.07-2.71,63.79-5.55,96-6.15,31.55-.58,63-1.53,94.18-6.45C3738.81,2283.35,3734,2266,3722.62,2267.79Z"/><path class="cls-2" d="M48.72,2016H86.51c7.72,0,7.73-12,0-12H48.72c-7.73,0-7.74,12,0,12Z"/><path class="cls-2" d="M532.46,2021.23l100.78,2.52c7.73.19,7.73-11.81,0-12l-100.78-2.52c-7.72-.19-7.72,11.81,0,12Z"/><path class="cls-2" d="M1190.06,2020.19l211.65,1.17c7.72,0,7.73-12,0-12l-211.65-1.17c-7.72,0-7.73,12,0,12Z"/><path class="cls-2" d="M1794.77,2013.75l369.54,2,367.54,2,207.74,1.12c7.72,0,7.73-12,0-12l-369.54-2-367.54-2-207.74-1.11c-7.73,0-7.73,12,0,12Z"/><path class="cls-2" d="M2936.12,2021h252c7.72,0,7.74-12,0-12h-252c-7.72,0-7.74,12,0,12Z"/><path class="cls-2" d="M3387.11,2015.68l156.21,2c7.73.1,7.73-11.9,0-12l-156.21-2c-7.73-.1-7.73,11.9,0,12Z"/><path class="cls-2" d="M3679.37,2014.89l115.91-1.93c7.71-.13,7.73-12.13,0-12l-115.91,1.93c-7.72.13-7.74,12.13,0,12Z"/></svg>