<svg id="Layer_1" data-name="Layer 1" xmlns="http://www.w3.org/2000/svg" viewBox="0 0 3840 3840"><defs><style>.cls-1{fill:#ad895f;}.cls-2{fill:#333;}</style></defs><title>pão superiorArtboard 1</title><path class="cls-1" d="M3724.85,1744.65c-94.35,23.72-233.1,2.3-292.23,2.29q-262.71,0-525.44-.09l-528.25-.08-1257.74-.22-628.86-.1c-104.81,0-209.63.33-314.44-.06-68.22-.25-158.63-13.79-158.63-102.94V1536.56c0-87.49,115.2-114,184.32-123.34,100.46-13.58,200.24,28.55,301.12,17.42,84.76-9.35,161.34-56.8,245.73-69.1,106.16-15.48,211.44,25.83,317.81,39.86,61.82,8.15,124.43,7.06,186.79,6.56,140.42-1.11,280.86.9,421.28,2.91l1083.1,15.51,387.45,5.55,409.11,5.86c81.59,1.17,264-30.78,264,98.77v106.89C3820,1701.48,3780,1730.78,3724.85,1744.65Z"/><path class="cls-2" d="M3722.46,1736c-107.5,25.9-222,2-331.12,2q-227.07,0-454.14-.08-455.29,0-910.59-.15l-916.78-.16c-303.16,0-606.32.74-909.48-.09-44.91-.12-95.51,1.11-135.11-23.62-34.19-21.34-37-56-37-92.34,0-28.26-.63-56.6,0-84.85,1.09-48.93,41.8-77.17,83.8-92.81a392.84,392.84,0,0,1,146.26-24.16c68.9,2.06,136.17,20.92,205.17,21.82,67.51.88,128.75-22.33,191.41-44.56,31.58-11.2,63.69-21.68,97-26.52,35.77-5.21,72.17-3.72,107.92.92,70.19,9.11,138.27,29.94,208.47,39.06,74.35,9.66,149.63,6.65,224.4,6.34,150.62-.62,301.23,2,451.83,4.11L2661,1434l459.32,6.58c148,2.12,296.3,7.45,444.28,6.25,36.47-.29,72.84-3.51,109.33-2.45,35.82,1,77.59,4.3,107.33,26.59,27,20.24,29.79,50.5,29.79,81.65,0,29.91.5,59.87,0,89.78-.91,54.05-40.17,80.9-88.54,93.6-11.2,2.94-6.45,20.3,4.78,17.36,44.59-11.71,88.57-36.21,99.11-84.69,6.58-30.26,2.65-64.48,2.65-95.17,0-28.66,2.75-59.07-10.48-85.53-15.92-31.83-49.44-47.79-82.77-54.92-39.37-8.42-80.25-7.5-120.24-6-52.74,2-105.25,1.09-158,.33l-477.75-6.84-951.22-13.62q-236.28-3.39-472.57-6.7c-79-1-158-1.69-237-1.56-78.49.13-157.69,4-235.88-4.48-74.17-8.07-145.83-30.55-219.73-40.4-69.81-9.3-134.44-1.37-200.81,21.45-67.91,23.36-132.71,50.25-205.92,48.12-71.16-2.08-140.65-22.19-212-21.85-47.95.22-98.95,9.58-143.55,27.38-37.36,14.9-75,39.34-87,80-8.37,28.49-3.84,62.92-3.84,92.13,0,31.68-3.57,66.06,12.72,94.7,20.6,36.24,63.17,50.64,102.14,56.12,62.67,8.82,128.18,3.73,191.27,3.7q235.71-.1,471.43-.07l950.88.16,949.63.16q235.15,0,470.31.07l236.45,0c54.21,0,107.72,4.63,161.83,7.34,56.7,2.85,114.79,3.43,170.32-10C3738.5,1750.61,3733.73,1733.25,3722.46,1736Z"/><path class="cls-2" d="M45.7,1715.21l191.5,1.32c7.72,0,7.73-12,0-12l-191.5-1.32c-7.72,0-7.73,12,0,12Z"/><path class="cls-2" d="M499.24,1713.1l234.32,2c7.72.07,7.73-11.93,0-12l-234.32-2c-7.73-.06-7.73,11.94,0,12Z"/><path class="cls-2" d="M849.45,1711.08H970.39c7.72,0,7.73-12,0-12H849.45c-7.72,0-7.73,12,0,12Z"/><path class="cls-2" d="M1179.51,1713.6h446c7.72,0,7.74-12,0-12h-446c-7.72,0-7.73,12,0,12Z"/><path class="cls-2" d="M2210,1713.6h214.16c7.72,0,7.73-12,0-12H2210c-7.72,0-7.74,12,0,12Z"/><path class="cls-2" d="M2666.05,1708.1l326.63,2.4,91.61.68c7.72,0,7.73-12,0-12l-326.63-2.4-91.61-.68c-7.72,0-7.73,12,0,12Z"/><path class="cls-2" d="M3553.57,1717.62q118.09,3.48,236.2-2.88c7.68-.42,7.73-12.42,0-12q-118,6.36-236.2,2.88c-7.73-.23-7.72,11.77,0,12Z"/></svg>