<svg id="Layer_1" data-name="Layer 1" xmlns="http://www.w3.org/2000/svg" viewBox="0 0 3840 3840"><defs><style>.cls-1{fill:#fffcd4;}.cls-2{fill:#333;}.cls-3{fill:#82947b;}</style></defs><title>creme pistorcheArtboard 1</title><path class="cls-1" d="M3547.06,1831.52c0-38-728.38-68.74-1626.87-68.74s-1626.86,30.77-1626.86,68.74v1.15c328.1,20.28,933.86,33.89,1626.86,33.89S3219,1853,3547.06,1832.67"/><path class="cls-2" d="M3556.06,1831.52c-.54-11.59-13.93-15.75-23.14-18.52-18.44-5.54-37.94-8.06-57-10.65-72.33-9.87-145.43-14.54-218.26-19-258.59-15.74-517.88-21.39-776.88-25.4q-507.92-7.89-1015.94-1.47c-272.5,3.35-545.2,8.77-817.37,23.19-82.2,4.36-164.53,9.17-246.37,18.17-24.66,2.71-49.42,5.64-73.78,10.45-11.6,2.28-26.32,4.37-36.11,11.62-4.39,3.25-6.92,7.14-6.92,12.74,0,5.09,4.13,8.7,9,9,166.57,10.26,333.44,15.77,500.24,20.3,228.74,6.21,457.55,9.72,686.36,11.71q394.42,3.43,788.89.71,350.83-2.39,701.6-10.45c175.73-4.3,351.5-9.66,527-19.37q24.81-1.38,49.62-2.9c11.5-.71,11.58-18.71,0-18-166.57,10.26-333.44,15.77-500.25,20.3-228.74,6.21-457.54,9.72-686.35,11.71q-394.44,3.43-788.9.71Q1220.73,1854,870,1845.94c-175.73-4.3-351.5-9.66-527-19.37q-24.81-1.38-49.61-2.9l9,9c0-1.34-.68,2.45-1.11,2.21,0,0,0-.19,2.71-1.57,2.28-1.14,9.47-3.35,14.63-4.66,19.53-4.93,39.7-7.6,59.66-10.11,73.62-9.23,147.87-13.87,221.9-18.21,252.83-14.8,506.25-20.44,759.44-24.36q496-7.7,992.12-1.75c269,3.12,538,8.4,806.7,21.71,85.21,4.22,170.49,9,255.42,17.3,38,3.71,88.62,5.66,121.51,19.55,2.39,1,4.69,1.39,3.25,1.55,1.36-.15-.36.23-.5-2.81.53,11.53,18.53,11.6,18,0Z"/><path class="cls-1" d="M549.42,2310.94,233.64,1865.21H234c0,30.29,754.93,54.85,1686.17,54.85s1686.17-24.56,1686.17-54.85l-315.78,445.73c0,26.28-613.54,47.59-1370.39,47.59s-1370.38-21.31-1370.38-47.59"/><path class="cls-2" d="M557.19,2306.4,279.92,1915l-38.51-54.36-7.77,13.54H234l-9-9c.68,11.36,14.29,14.31,23.28,16.42,19.31,4.54,39.36,6.53,59.06,8.63,75.24,8,151,11.64,226.57,15.19,266.18,12.47,532.79,17,799.23,20.19q526.35,6.36,1052.79,1.3c282.51-2.63,565.14-6.93,847.46-18.32,86.35-3.48,172.79-7.33,258.92-14.54,25.59-2.14,51.2-4.54,76.61-8.29,12.13-1.79,27.81-2.8,38.63-9.33,4.34-2.62,7.47-5.92,7.79-11.25.58-9.67-12.05-11.2-16.77-4.54L3340,2225.61,3289.47,2297c-2.71,3.83-5.22,7.59-7.57,11.57-1.62,2.74,2.16-2.07,1.42-2.36-.17-.07-2.89,1.26-5.87,2.06-20.84,5.55-42.79,7.37-64.17,9.49-39.37,3.89-78.87,6.44-118.35,8.72-293,16.89-587,19.73-880.34,22-363.15,2.76-726.46,1.27-1089.53-7.73-125.49-3.11-251-6.9-376.35-14.06-39.86-2.27-79.73-4.83-119.47-8.7-21.8-2.12-44.2-3.92-65.47-9.47-2.34-.61-6.87-1.72-5.82-1.82-3.18.32.47-1.31.86,4.29-.8-11.49-18.81-11.58-18,0,1,14.2,22.43,16.16,33,18,28.24,5,57,7.33,85.55,9.65,107.49,8.75,215.45,12.52,323.22,16,356.73,11.62,713.85,13.85,1070.75,12.66,322.76-1.08,645.93-3.95,968.39-19.06,78.73-3.68,158.68-6.06,236.73-18,13.43-2.05,29.78-3.25,39.5-13.63,1.71-1.84.44-3.74,1.61-5.48-5.49,8.11-1.69,4.85-.81,3.75,1.44-1.8,2.69-3.8,4-5.68l18.43-26,285.64-403.17,7.29-10.3-16.77-4.54c.37-6.06,4-5.19-1.48-3.27a118.1,118.1,0,0,1-17.8,4.22c-21.07,3.91-42.51,6-63.83,8-77.53,7.3-155.44,11-233.22,14.46-262.72,11.66-525.8,16.14-788.74,19.22q-512.71,6-1025.5,1.23c-278-2.51-556.13-6.74-834-17.41-87.36-3.36-174.76-7.16-262-13.75-27.61-2.08-55.24-4.38-82.71-7.84-14.42-1.81-29.86-3.25-43.66-8.11-5.61-2-1.85-2.84-1.49,3.27-.29-4.85-3.88-9-9-9h-.38c-6.37,0-11.83,7.82-7.77,13.54l277.27,391.37,38.51,54.36c6.64,9.38,22.26.4,15.54-9.08Z"/><path class="cls-3" d="M558,2011.44c17.38,0,17.4-27,0-27s-17.4,27,0,27Z"/><path class="cls-3" d="M868.51,2153.46c17.38,0,17.41-27,0-27s-17.4,27,0,27Z"/><path class="cls-3" d="M2013,2104.93c17.37,0,17.4-27,0-27s-17.4,27,0,27Z"/><path class="cls-3" d="M1774.37,2266.69c17.37,0,17.4-27,0-27s-17.41,27,0,27Z"/><path class="cls-3" d="M1495.33,2149.42c17.37,0,17.4-27,0-27s-17.4,27,0,27Z"/><path class="cls-3" d="M2842,2173.68c17.38,0,17.41-27,0-27s-17.4,27,0,27Z"/><path class="cls-3" d="M2631.69,2011.92c17.37,0,17.4-27,0-27s-17.4,27,0,27Z"/><path class="cls-3" d="M3315.09,2011.71c17.37,0,17.4-27,0-27s-17.4,27,0,27Z"/><path class="cls-3" d="M3125.05,2250.51c17.38,0,17.41-27,0-27s-17.4,27,0,27Z"/><path class="cls-3" d="M3149.32,2084.71c17.37,0,17.4-27,0-27s-17.41,27,0,27Z"/><path class="cls-3" d="M2389.05,2181.77c17.37,0,17.4-27,0-27s-17.4,27,0,27Z"/><path class="cls-3" d="M1163.72,2056.4c17.38,0,17.41-27,0-27s-17.4,27,0,27Z"/><path class="cls-3" d="M1109.32,2267c17.37,0,17.4-27,0-27s-17.4,27,0,27Z"/><path class="cls-3" d="M638.52,2212.6c17.38,0,17.41-27,0-27s-17.4,27,0,27Z"/><path class="cls-3" d="M807.85,1825.9c17.38,0,17.41-27,0-27s-17.4,27,0,27Z"/><path class="cls-3" d="M2718.1,1825.72c17.37,0,17.4-27,0-27s-17.41,27,0,27Z"/><path class="cls-3" d="M1884.31,1843.94c17.37,0,17.4-27,0-27s-17.4,27,0,27Z"/><path class="cls-3" d="M1402.32,1813.77c17.37,0,17.4-27,0-27s-17.4,27,0,27Z"/><path class="cls-3" d="M2333.8,1828.12c17.37,0,17.4-27,0-27s-17.4,27,0,27Z"/></svg>