<svg id="Layer_1" data-name="Layer 1" xmlns="http://www.w3.org/2000/svg" viewBox="0 0 3840 3840"><defs><style>.cls-1{fill:#c16267;}.cls-2{fill:#333;}</style></defs><title>massa pistorcheArtboard 1</title><path class="cls-1" d="M3807,1796.47l-368,562.06c0,38-680.09,68.74-1519,68.74s-1519-30.78-1519-68.74L33,1796.47c0-38,844.84-68.74,1887-68.74S3807,1758.51,3807,1796.47Z"/><path class="cls-2" d="M3799.23,1791.93l-304.17,464.61-56.76,86.7c-1.84,2.81-3.83,5.57-5.54,8.46-1,1.73-4.31,8.52-2.48,5.12,1.1-2,1.82-1.23-.41-.66-3.55.91-4.88,2.36-9.31,3.73-29.36,9.06-61,12-91.41,15.36-54.66,6.13-109.56,10.15-164.44,13.69-394,25.44-790,28.58-1184.71,29.28-410.79.72-822.44-2.47-1232.72-25-101.5-5.57-206.59-8-306.58-28.16-8.6-1.73-21.09-4.54-27.26-7.23a26.75,26.75,0,0,1-4.95-2.95c.42.19,3.57,6,1.15,1.26-.63-1.26-.86-1.93-1.45-3-11.68-20.85-26.5-40.48-39.59-60.46L45,1798.43c-.59-.89-2.81-5.66-3.88-5.92.72.17,1,8.63-1.14,8.19,2.21.45,12.31-4.85,17.23-6,28.06-6.79,57.29-9.47,85.94-12.39,114.66-11.66,230.09-16.7,345.19-21.58,397.82-16.86,796.24-21.6,1194.37-23.42,448.68-2,897.5.69,1346.05,12.57,156.72,4.16,313.47,9.28,470,18,88.29,4.9,178.52,7.91,265.81,23.2,9.34,1.63,18.8,3.35,27.83,6.29,3.78,1.24,3.37,2.33,6.28,2.59,2,.17-.5.85-.73-3.42.62,11.52,18.62,11.6,18,0-.82-15.25-24.28-18.39-35.58-20.74-31.94-6.64-64.77-9.7-97.2-12.8-122.5-11.68-245.71-16.86-368.63-21.77-186.21-7.43-372.54-12-558.86-15.34q-346.91-6.25-693.89-6.9-364.05-1-728.1,3.19c-205.49,2.45-411,6.19-616.4,12.39C568.83,1739,420.27,1744.3,272,1754c-48,3.13-96.07,6.63-143.92,11.91-27,3-55.07,5.41-81.29,12.88-12.14,3.46-27.76,9.57-20.06,24.55,12.43,24.22,30.68,46.87,45.57,69.62l190.78,291.4c43,65.75,84.2,133.3,129.37,197.62.26.36.49.74.73,1.11-3.8-5.89-1.47-1.14.39,1.55a23.51,23.51,0,0,0,6.92,6.77c7.38,4.88,17.28,7,25.76,9,35.38,8.36,72.17,11.79,108.27,15.41,141.26,14.19,283.5,19.81,425.31,25.05,211.42,7.81,423,11.79,634.54,13.89q365.87,3.61,731.76-.91c205-2.56,410-6.93,614.91-15.36,132-5.42,264.66-10.72,395.94-26.07,29.85-3.49,61.77-6,90.42-15.76,7.18-2.44,14.15-5.2,18.75-11.48,1.13-1.54.86-3.6,1.71-5,2.18-3.75-2.66,5.21-.51,2.17,1.57-2.22,3-4.57,4.48-6.84L3600,2129,3783,1849.58l31.79-48.57C3821.13,1791.29,3805.56,1782.27,3799.23,1791.93Z"/><path class="cls-2" d="M3798,1796.47c.31-5.7,2.57-3.66-2.45-1.9a153.78,153.78,0,0,1-19.92,5.29c-23.62,4.91-47.74,7.55-71.71,10.08-86.71,9.15-173.94,13.8-261,18.13-294,14.61-588.42,20.22-882.68,24.08q-573.78,7.55-1147.65,1.55c-311.13-3.16-622.4-8.46-933.29-21.83-97.77-4.21-195.61-9-293.14-17.23-30.71-2.59-61.45-5.41-92-9.75-16.5-2.35-34-4.4-49.74-10.32-5-1.88-2.75-3.77-2.45,1.9-.62-11.52-18.62-11.59-18,0,.65,12.2,15.66,15.86,25.26,18.38,21.43,5.64,43.86,8.12,65.81,10.74,84.13,10,169,14.59,253.56,19,297.82,15.63,596.24,21.28,894.42,25.31q589,8,1178.18,1.63c316.17-3.3,632.51-8.7,948.4-23,96.65-4.36,193.41-9.19,289.76-18.22,28.54-2.67,57.15-5.63,85.44-10.3,13.52-2.24,31.12-3.79,43-11.47,4.53-2.93,7.89-6.48,8.19-12.13.62-11.57-17.38-11.54-18,0Z"/></svg>